<svg width="32" height="32" viewBox="0 0 32 32" fill="none" xmlns="http://www.w3.org/2000/svg">
<path fill-rule="evenodd" clip-rule="evenodd" d="M24.3332 15.6667C24.3332 16.8627 23.3625 17.8333 22.1665 17.8333H17.8332V22.1667C17.8332 23.3627 16.8625 24.3333 15.6665 24.3333C14.4705 24.3333 13.4999 23.3627 13.4999 22.1667V17.8333H9.16655C7.97055 17.8333 6.99988 16.8627 6.99988 15.6667C6.99988 14.4707 7.97055 13.5 9.16655 13.5H13.4999V9.16667C13.4999 7.97067 14.4705 7 15.6665 7C16.8625 7 17.8332 7.97067 17.8332 9.16667V13.5H22.1665C23.3625 13.5 24.3332 14.4707 24.3332 15.6667Z" fill="white"/>
</svg>
