<svg width="25" height="24" viewBox="0 0 25 24" fill="none" xmlns="http://www.w3.org/2000/svg">
<path d="M16.998 0C15.7185 0.0884995 14.223 0.907495 13.3515 1.97399C12.5565 2.94148 11.9025 4.37847 12.1575 5.77497C13.5555 5.81847 15 4.97997 15.837 3.89548C16.62 2.88598 17.2125 1.45799 16.998 0Z" fill="white"/>
<path d="M22.0573 8.04777C20.8288 6.50728 19.1023 5.61328 17.4718 5.61328C15.3193 5.61328 14.4088 6.64378 12.9133 6.64378C11.3713 6.64378 10.1998 5.61628 8.33835 5.61628C6.50987 5.61628 4.56288 6.73377 3.32838 8.64476C1.59289 11.3357 1.88989 16.3952 4.70238 20.7047C5.70887 22.2467 7.05286 23.9807 8.81085 23.9957C10.3753 24.0107 10.8163 22.9922 12.9358 22.9817C15.0553 22.9697 15.4573 24.0092 17.0188 23.9927C18.7783 23.9792 20.1958 22.0577 21.2023 20.5157C21.9238 19.4102 22.1923 18.8537 22.7518 17.6057C18.6823 16.0562 18.0298 10.2693 22.0573 8.04777Z" fill="white"/>
</svg>
