<svg width="106" height="105" viewBox="0 0 106 105" fill="none" xmlns="http://www.w3.org/2000/svg">
<g clip-path="url(#clip0_6514_28615)">
<path d="M6.67331 68.5003C6.56331 68.9708 6.95199 69.7795 7.04 70.2132C7.06473 70.6413 7.16401 71.0618 7.33334 71.4556C7.9787 71.1395 8.58739 70.7646 9.25475 70.4999C9.9221 70.2353 10.4135 70.0441 11.0001 69.8383C11.0038 69.7771 11.0038 69.7157 11.0001 69.6545L11.0881 69.8015L12.0489 69.4634L12.2102 69.4193V69.3605C12.0623 68.7917 11.9473 68.2149 11.8655 67.6329C11.8508 67.4518 11.8508 67.2699 11.8655 67.0889C12.0562 67.552 12.9142 69.1032 13.2002 69.1032H13.3909C14.8943 68.6915 16.4343 68.368 17.9597 68.0666C19.8591 67.6715 21.7864 67.4257 23.724 67.3315C24.8313 67.28 25.924 67.2433 27.0461 67.133C27.3761 67.0742 27.5961 67.0227 27.5814 66.9419C27.5173 66.529 27.4242 66.1212 27.3028 65.7215C27.1592 65.2564 27.0585 64.779 27.0021 64.2953C26.8481 63.2662 26.6721 62.237 26.5107 61.2078C26.3494 60.1786 26.1807 59.3038 26.012 58.3481C25.9094 57.7747 26.1147 56.9219 25.5207 56.5837C24.714 56.1132 24.3326 55.1135 23.966 54.2975C23.5464 53.3065 23.2056 52.284 22.9466 51.2393C22.5943 49.5478 21.9833 47.9211 21.1352 46.4168C20.2992 45.145 18.8618 44.8362 17.4684 44.8583C17.1841 44.8607 16.9002 44.8779 16.6177 44.9097C16.2437 44.9612 15.8843 44.873 15.5103 44.9097C15.2446 44.9764 14.9951 45.0964 14.777 45.2626C14.7026 45.3091 14.624 45.3484 14.5423 45.3802C14.334 45.4285 14.1303 45.4949 13.9336 45.5787C13.8603 45.6302 13.8749 45.7845 13.9776 45.7257L14.1169 45.6596C13.4122 46.0858 12.6451 46.3984 11.8435 46.5858C11.4015 46.6985 10.9495 46.7674 10.4941 46.7917C10.0778 46.8522 9.6679 46.9507 9.26941 47.0857C9.25309 47.0883 9.23749 47.0942 9.22363 47.1032C9.20976 47.1122 9.19794 47.124 9.18894 47.1379C9.17994 47.1517 9.17397 47.1674 9.17141 47.1837C9.16885 47.2001 9.16975 47.2168 9.17408 47.2328C9.28152 47.5969 9.36482 47.9677 9.42342 48.3428C9.4307 48.4824 9.4307 48.6223 9.42342 48.7619C9.40196 48.7068 9.36952 48.6568 9.32808 48.6148C9.13741 48.3796 8.97607 47.4386 8.59472 47.4092C8.56647 47.4097 8.53912 47.4192 8.51668 47.4364C8.49424 47.4536 8.47789 47.4776 8.47005 47.5048C8.36005 47.7988 7.86869 48.1443 7.63402 48.3208C7.23258 48.6175 6.79671 48.8644 6.33597 49.0559C5.5146 49.3941 4.67857 49.7028 3.84254 50.0042C3.38052 50.166 2.92584 50.2836 2.45649 50.4012C2.17048 50.4674 1.8478 50.3498 1.56912 50.4674C0.988394 50.7417 0.484482 51.1559 0.102399 51.673C0.0657312 51.673 0.0290631 51.8421 0.102399 51.8347C0.470322 51.8002 0.841434 51.8377 1.19511 51.945C0.91643 52.3861 1.07777 53.0551 1.07777 53.555C1.07777 53.827 1.45178 54.1431 1.55445 54.3857C1.65712 54.6283 1.77446 54.8856 1.88447 55.1208C1.9683 55.415 2.01269 55.7191 2.01647 56.025C2.01899 56.0359 2.02372 56.0461 2.03035 56.055C2.03698 56.0639 2.04537 56.0714 2.05501 56.0769C2.06465 56.0824 2.07532 56.0859 2.08635 56.0871C2.09739 56.0883 2.10855 56.0872 2.11914 56.0838C2.39049 56.0177 2.63983 55.8706 2.91851 55.8118C3.32919 55.731 3.76187 55.731 4.17989 55.6648C3.8732 55.8108 3.58099 55.9855 3.30719 56.1868C3.04274 56.3336 2.79658 56.5112 2.57383 56.7161C2.30248 57.0101 2.91851 57.5468 3.03584 57.76C3.41799 58.6084 3.65357 59.5157 3.73254 60.4432C3.90271 61.1641 4.18483 61.8538 4.56857 62.4869C4.80118 62.8286 4.96325 63.2136 5.04525 63.619C5.04525 63.7366 5.04525 64.0307 5.09659 64.141C5.12128 64.1742 5.15644 64.1981 5.19638 64.2088C5.23632 64.2194 5.27868 64.2163 5.3166 64.1998C5.5424 64.1162 5.77571 64.0547 6.01329 64.016C5.96299 64.0664 5.91642 64.1205 5.87395 64.1777C5.71995 64.3689 5.4486 64.5232 5.3606 64.7585C5.27259 64.9937 5.67594 65.4054 5.80795 65.5965C5.95681 65.8351 6.05569 66.1014 6.09856 66.3795C6.14143 66.6575 6.12738 66.9414 6.05729 67.2139C5.96929 67.4638 5.83728 67.6255 6.05729 67.8167C6.2773 68.0078 6.77599 68.0593 6.67331 68.5003Z" fill="#BF4027"/>
<path d="M10.4941 46.799H10.3108C10.2474 46.792 10.1835 46.792 10.1201 46.799C9.99859 46.824 9.87861 46.8559 9.76074 46.8946L9.4014 46.9975C9.34102 47.0115 9.28209 47.0312 9.22539 47.0563C9.21353 47.065 9.20353 47.076 9.19597 47.0886C9.18841 47.1012 9.18346 47.1152 9.18139 47.1298C9.17424 47.1588 9.17424 47.1891 9.18139 47.218L9.27672 47.5856C9.29818 47.6456 9.31534 47.707 9.32806 47.7694V47.9532L9.36473 48.137V48.3207C9.37197 48.4481 9.37197 48.5757 9.36473 48.703C9.33405 48.6469 9.29976 48.5929 9.26206 48.5413C9.22043 48.4884 9.18818 48.4287 9.16672 48.3648C9.11151 48.2425 9.06256 48.1173 9.02005 47.9899C8.97127 47.8689 8.91493 47.751 8.85138 47.6371C8.78537 47.5268 8.7047 47.4092 8.5947 47.3871H8.55803C8.5374 47.4003 8.51988 47.4179 8.5067 47.4386C8.48385 47.5018 8.45171 47.5613 8.41136 47.615C8.32803 47.7239 8.23473 47.8249 8.13268 47.9164C7.92734 48.083 7.71467 48.2448 7.49466 48.4016C7.38465 48.4751 7.26732 48.5413 7.14998 48.6074C7.03665 48.6783 6.91909 48.7421 6.79797 48.7986C6.55891 48.9139 6.31414 49.017 6.0646 49.1073L4.59788 49.6734L3.86452 49.9601L3.13116 50.1953L2.74248 50.2983C2.61084 50.3378 2.4758 50.3649 2.33913 50.3791C2.09237 50.3426 1.84042 50.3678 1.60577 50.4526C1.36615 50.5597 1.14175 50.6982 0.93841 50.8643C0.718071 51.0466 0.512117 51.2457 0.322387 51.4598L0.197715 51.6142L0.161047 51.6509V51.7097H0.432391C0.705398 51.7117 0.97684 51.7513 1.23909 51.8274C1.25547 51.8325 1.26922 51.8438 1.27743 51.8589C1.28565 51.8739 1.28767 51.8917 1.28309 51.9082C1.25319 51.9656 1.22626 52.0245 1.20242 52.0847C1.20242 52.1435 1.20242 52.2023 1.15108 52.2684C1.09975 52.3346 1.15108 52.4008 1.15108 52.4669V53.6431C1.18002 53.7003 1.21441 53.7544 1.25376 53.8049C1.32709 53.9152 1.42243 54.0181 1.5031 54.1357C1.57176 54.2619 1.63298 54.392 1.68644 54.5253L1.84778 54.9002L1.89178 54.9958V55.0473C1.9132 55.1122 1.93035 55.1785 1.94311 55.2458V55.8706H1.98712C2.17491 55.8888 2.36401 55.8888 2.5518 55.8706C2.67457 55.811 2.80214 55.7618 2.93315 55.7236L3.34383 55.6648H3.75452L4.15787 55.6133V55.7603H4.02586L3.93786 55.8706L3.66651 56.0544L3.3805 56.2455L3.09449 56.422C2.9978 56.4772 2.90471 56.5386 2.81581 56.6058L2.69848 56.716C2.69848 56.716 2.64714 56.716 2.64714 56.7675C2.64183 56.7867 2.64183 56.8071 2.64714 56.8263C2.63668 56.8716 2.63585 56.9185 2.64469 56.9641C2.65354 57.0097 2.67186 57.0529 2.69848 57.091C2.74755 57.1875 2.80654 57.2787 2.87448 57.363L3.09449 57.6276C3.1289 57.6774 3.16073 57.7289 3.18983 57.782L3.26316 57.9364C3.31466 58.0384 3.35877 58.1441 3.39517 58.2525C3.43917 58.3627 3.46851 58.473 3.50517 58.5833C3.56384 58.8038 3.61518 59.0317 3.65185 59.2523C3.68851 59.4728 3.72518 59.708 3.76185 59.9286C3.79852 60.1491 3.79852 60.1491 3.81319 60.2668V60.5976C3.8672 60.8151 3.93581 61.0288 4.01853 61.2371C4.0992 61.443 4.19453 61.6488 4.28987 61.8547L4.61988 62.4869C4.72255 62.6854 4.84722 62.8765 4.94256 63.0897C5.0536 63.2883 5.11876 63.5094 5.13324 63.7366C5.11425 63.8411 5.11425 63.9482 5.13324 64.0527C5.12919 64.0696 5.12919 64.0873 5.13324 64.1042H5.32391L5.64659 64.0013L6.00593 63.9572C6.01176 63.9546 6.01815 63.9536 6.02448 63.9542C6.03082 63.9549 6.03687 63.9572 6.04205 63.9609C6.04723 63.9646 6.05135 63.9696 6.05402 63.9754C6.05669 63.9812 6.05781 63.9876 6.05727 63.9939C5.9546 64.0968 5.8666 64.2145 5.74926 64.3174C5.6384 64.4097 5.53982 64.516 5.45591 64.6335C5.44273 64.6636 5.42804 64.6931 5.41191 64.7217C5.41285 64.7388 5.41285 64.756 5.41191 64.7732V64.8173C5.42052 64.8872 5.44296 64.9547 5.47791 65.0158C5.55272 65.1386 5.63864 65.2542 5.73459 65.3613C5.78867 65.4256 5.83313 65.4974 5.8666 65.5745C5.90759 65.6381 5.94433 65.7044 5.9766 65.773C6.03729 65.9125 6.08397 66.0578 6.11594 66.2067C6.14628 66.3521 6.16589 66.4995 6.17461 66.6478V66.8757C6.17013 66.9503 6.15784 67.0242 6.13794 67.0962C6.13794 67.2506 6.0206 67.3756 5.99127 67.5152C5.98594 67.5489 5.98776 67.5834 5.9966 67.6163C6.00545 67.6492 6.02112 67.6799 6.0426 67.7064C6.06517 67.7327 6.08969 67.7573 6.11594 67.7799L6.21128 67.846C6.32861 67.9269 6.46795 67.9784 6.58529 68.0739C6.64604 68.1228 6.6897 68.1897 6.70996 68.2651C6.7283 68.3399 6.7283 68.4181 6.70996 68.493C6.68073 68.6385 6.68073 68.7885 6.70996 68.9341C6.70996 69.0811 6.76863 69.2208 6.8053 69.3678C6.8933 69.6471 6.99597 69.9265 7.06198 70.2132C6.99597 69.9265 6.87863 69.6545 6.79797 69.3678C6.75014 69.2263 6.71336 69.0813 6.68796 68.9341C6.66237 68.7857 6.66237 68.634 6.68796 68.4856C6.7063 68.4157 6.7063 68.3423 6.68796 68.2724C6.66987 68.204 6.62833 68.1441 6.57062 68.1033C6.46062 68.0151 6.32128 67.9563 6.19661 67.8755C6.16234 67.8602 6.13028 67.8404 6.10127 67.8166L6.01327 67.7358C5.98782 67.704 5.96888 67.6675 5.95755 67.6284C5.94623 67.5893 5.94273 67.5484 5.94727 67.5079C5.94727 67.3535 6.0646 67.2285 6.08661 67.0889C6.10592 67.0167 6.1182 66.9428 6.12327 66.8683C6.12695 66.7973 6.12695 66.7261 6.12327 66.6551C6.1223 66.5086 6.10258 66.3629 6.0646 66.2214C6.01267 66.0778 5.94633 65.9399 5.8666 65.8097C5.83431 65.7436 5.79756 65.6797 5.75659 65.6186C5.75659 65.5598 5.66859 65.5009 5.62459 65.4421C5.52434 65.3298 5.43358 65.2093 5.35324 65.0819C5.31266 65.0122 5.28764 64.9344 5.27991 64.854V64.7879C5.27556 64.771 5.27556 64.7533 5.27991 64.7364C5.29251 64.6954 5.30974 64.6559 5.33124 64.6188C5.41627 64.4932 5.52017 64.3816 5.63925 64.288C5.74193 64.1924 5.83726 64.0748 5.93993 63.9645L5.98393 64.038C5.76188 64.0753 5.54349 64.1318 5.33124 64.2071H5.24324C5.20694 64.2144 5.16954 64.2144 5.13324 64.2071L5.04523 64.1556C5.01994 64.1305 4.99998 64.1005 4.98656 64.0674C4.96142 63.9487 4.96142 63.826 4.98656 63.7072C4.98996 63.6001 4.97508 63.4932 4.94256 63.3911C4.92029 63.2812 4.88329 63.1749 4.83256 63.075C4.74455 62.8765 4.61988 62.6854 4.50988 62.4795C4.39987 62.2737 4.2972 62.0826 4.19453 61.8767C4.08981 61.6739 3.99676 61.4653 3.91586 61.2518C3.82744 61.0399 3.75631 60.8211 3.70318 60.5976L3.66651 60.4505V60.2815C3.66651 60.1712 3.62251 60.0609 3.60784 59.9506C3.57118 59.7228 3.53451 59.5022 3.49051 59.2743C3.45641 59.0532 3.40741 58.8346 3.34383 58.62C3.31736 58.5123 3.28304 58.4066 3.24116 58.3039C3.2034 58.1984 3.15932 58.0953 3.10916 57.9952L3.03582 57.8408C3.0043 57.7946 2.97002 57.7505 2.93315 57.7085L2.72048 57.4512C2.64782 57.3578 2.58166 57.2596 2.52247 57.1571C2.4864 57.0997 2.46314 57.0352 2.45427 56.9679C2.44541 56.9007 2.45117 56.8323 2.47113 56.7675C2.60717 56.5726 2.78836 56.4136 2.99915 56.3044L3.2925 56.1206L3.57118 55.9294L3.85719 55.7456L4.01119 55.6574H4.1872C4.20663 55.6526 4.22714 55.6552 4.24476 55.6647C4.26238 55.6743 4.27584 55.69 4.28254 55.7089C4.2859 55.7185 4.28722 55.7288 4.28642 55.7389C4.28562 55.7491 4.28271 55.759 4.27788 55.768C4.27305 55.777 4.26641 55.7849 4.25837 55.7912C4.25033 55.7974 4.24108 55.802 4.2312 55.8045C4.09538 55.8294 3.95827 55.8465 3.82052 55.8559L3.41717 55.8927C3.28517 55.8927 3.14583 55.8927 3.00649 55.9515C2.87916 55.9817 2.75417 56.021 2.63247 56.0691C2.50659 56.1254 2.37666 56.1721 2.24379 56.2088H2.19246C2.16078 56.2124 2.1288 56.2124 2.09712 56.2088H2.04579L2.00178 56.1573V55.7456C2.00592 55.682 2.00592 55.6182 2.00178 55.5545C1.99507 55.4861 1.97775 55.4191 1.95045 55.356V55.209L1.78911 54.8341C1.73044 54.7091 1.6791 54.5694 1.62044 54.4665L1.37843 54.143C1.33442 54.0842 1.29776 54.0181 1.26109 53.9593L1.04841 53.6652C1.04498 53.631 1.04498 53.5965 1.04841 53.5623V52.5184C1.0448 52.4474 1.0448 52.3762 1.04841 52.3052C1.04841 52.2317 1.08508 52.1655 1.09975 52.092L1.19509 51.8935L1.23909 51.9964C1.00117 51.9237 0.754403 51.8841 0.505727 51.8788H0.139046C0.112421 51.8842 0.0850021 51.8842 0.0583767 51.8788C0.0398367 51.869 0.0244664 51.8542 0.0140733 51.8359C0.00368017 51.8177 -0.00130368 51.7969 -0.000292192 51.7759C-0.0148766 51.7305 -0.0148766 51.6816 -0.000292192 51.6362V51.5921L0.131713 51.4451C0.310892 51.2423 0.507182 51.0554 0.718402 50.8864C0.821072 50.8055 0.93841 50.732 1.04841 50.6585C1.15842 50.585 1.29042 50.5188 1.40776 50.4673C1.47205 50.4384 1.5382 50.4139 1.60577 50.3938H2.20712C2.33647 50.3829 2.4643 50.3582 2.58847 50.3203L2.96982 50.2247L3.70318 49.9895L4.43654 49.7175L5.90326 49.1514C6.1532 49.0649 6.39804 48.9643 6.63663 48.85C6.75525 48.7961 6.87038 48.7347 6.98131 48.6663C7.0979 48.6047 7.21056 48.536 7.31865 48.4604C7.53789 48.3161 7.74849 48.159 7.94934 47.9899C8.04712 47.9043 8.13786 47.8108 8.22069 47.7106C8.25677 47.6568 8.28864 47.6002 8.31602 47.5415C8.33555 47.5037 8.36629 47.4728 8.40403 47.4533C8.42068 47.4477 8.43871 47.4477 8.45536 47.4533C8.47666 47.4454 8.50006 47.4454 8.52136 47.4533C8.59085 47.4738 8.65395 47.5117 8.7047 47.5635C8.748 47.6194 8.78722 47.6784 8.82204 47.74C8.88071 47.8576 8.93205 47.9826 8.98338 48.1002C9.03472 48.2178 9.07138 48.3501 9.12272 48.4751C9.17405 48.6001 9.17406 48.5927 9.21072 48.6516C9.25497 48.7026 9.29199 48.7595 9.32073 48.8206H9.27672C9.28402 48.6958 9.28402 48.5706 9.27672 48.4457V47.8944L9.23272 47.7106L9.13739 47.343C9.12962 47.3116 9.12962 47.2788 9.13739 47.2474C9.14545 47.2136 9.16331 47.1829 9.18872 47.1592C9.24753 47.133 9.309 47.1133 9.37206 47.1004L9.73141 46.9975L10.0981 46.9093C10.1615 46.9022 10.2254 46.9022 10.2888 46.9093L10.4941 46.799Z" fill="#D74227"/>
<mask id="mask0_6514_28615" style="mask-type:luminance" maskUnits="userSpaceOnUse" x="9" y="44" width="19" height="25">
<path style="mix-blend-mode:multiply" d="M27.2735 65.67C27.1299 65.2049 27.0293 64.7275 26.9729 64.2438C26.8189 63.2146 26.6429 62.1854 26.4815 61.1563C26.3202 60.1271 26.1515 59.2522 25.9828 58.2966C25.8802 57.7232 26.0855 56.8704 25.4915 56.5322C24.6848 56.0617 24.3034 55.0619 23.9368 54.2459C23.5172 53.255 23.1764 52.2325 22.9174 51.1878C22.5651 49.4963 21.954 47.8696 21.106 46.3652C20.2699 45.0934 18.8326 44.7847 17.4392 44.8067C17.1549 44.8092 16.871 44.8264 16.5885 44.8582C16.2145 44.9097 15.8551 44.8214 15.4811 44.8582C15.2153 44.9249 14.9659 45.0449 14.7477 45.2111C14.6734 45.2576 14.5948 45.2969 14.5131 45.3287C14.3131 45.3952 14.1193 45.4788 13.9337 45.5786C13.8604 45.6301 13.875 45.7845 13.9777 45.7257L14.117 45.6595C13.4123 46.0858 12.6452 46.3983 11.8436 46.5858C11.4016 46.6984 10.9497 46.7674 10.4942 46.7916C10.2077 46.8243 9.92512 46.8859 9.65088 46.9754C11.2496 54.2533 13.237 61.4356 15.2024 68.6253C16.1118 68.4194 17.0212 68.2356 17.9305 68.0372C19.8299 67.6421 21.7572 67.3963 23.6947 67.302C24.8021 67.2506 25.8948 67.2138 27.0169 67.1035C27.3469 67.0447 27.5669 66.9933 27.5522 66.9124C27.4891 66.4921 27.396 66.0769 27.2735 65.67Z" fill="url(#paint0_linear_6514_28615)"/>
</mask>
<g mask="url(#mask0_6514_28615)">
<path style="mix-blend-mode:multiply" opacity="0.7" d="M27.2735 65.67C27.1299 65.2049 27.0293 64.7275 26.9729 64.2438C26.8189 63.2146 26.6429 62.1854 26.4815 61.1563C26.3202 60.1271 26.1515 59.2522 25.9828 58.2966C25.8802 57.7232 26.0855 56.8704 25.4915 56.5322C24.6848 56.0617 24.3034 55.0619 23.9368 54.2459C23.5172 53.255 23.1764 52.2325 22.9174 51.1878C22.5651 49.4963 21.954 47.8696 21.106 46.3652C20.2699 45.0934 18.8326 44.7847 17.4392 44.8067C17.1549 44.8092 16.871 44.8264 16.5885 44.8582C16.2145 44.9097 15.8551 44.8214 15.4811 44.8582C15.2153 44.9249 14.9659 45.0449 14.7477 45.2111C14.6734 45.2576 14.5948 45.2969 14.5131 45.3287C14.3131 45.3952 14.1193 45.4788 13.9337 45.5786C13.8604 45.6301 13.875 45.7845 13.9777 45.7257L14.117 45.6595C13.4123 46.0858 12.6452 46.3983 11.8436 46.5858C11.4016 46.6984 10.9497 46.7674 10.4942 46.7916C10.2077 46.8243 9.92512 46.8859 9.65088 46.9754C11.2496 54.2533 13.237 61.4356 15.2024 68.6253C16.1118 68.4194 17.0212 68.2356 17.9305 68.0372C19.8299 67.6421 21.7572 67.3963 23.6947 67.302C24.8021 67.2506 25.8948 67.2138 27.0169 67.1035C27.3469 67.0447 27.5669 66.9933 27.5522 66.9124C27.4891 66.4921 27.396 66.0769 27.2735 65.67Z" fill="url(#paint1_linear_6514_28615)"/>
</g>
<path d="M18.8765 63.4793L18.1871 64.6482C18.1871 64.6482 17.9818 64.9128 19.4412 65.1113C20.9006 65.3098 26.6135 65.9273 27.5595 66.8977L26.4008 60.2227L18.8765 63.4793Z" fill="#931A1D"/>
<path d="M18.5098 64.9202C20.599 63.9166 22.7735 63.1023 25.0073 62.4869C25.5794 62.3399 26.1587 62.2149 26.7381 62.0973L26.4007 60.2227L18.8764 63.4793L18.1871 64.6482C18.1871 64.6482 18.0918 64.7732 18.5098 64.9202Z" fill="#302B29"/>
<path d="M99.3921 68.5003C99.5021 68.9708 99.1061 69.7795 99.0181 70.2132C98.9963 70.6417 98.8969 71.0627 98.7248 71.4556C98.0867 71.1395 97.4707 70.7646 96.8107 70.4999C96.1507 70.2353 95.6447 70.0441 95.0653 69.8309C95.0617 69.7697 95.0617 69.7084 95.0653 69.6471C95.0387 69.6977 95.0093 69.7468 94.9773 69.7942L94.0166 69.456L93.8626 69.4119C93.8552 69.393 93.8552 69.372 93.8626 69.3531C94.0129 68.7845 94.1305 68.2077 94.2146 67.6255C94.2293 67.4445 94.2293 67.2625 94.2146 67.0815C94.0313 67.552 93.1732 69.1325 92.9165 69.1031H92.7332C91.2225 68.6915 89.6824 68.368 88.157 68.0666C86.2576 67.6715 84.3304 67.4257 82.3928 67.3315C81.2854 67.28 80.1927 67.2432 79.0707 67.133C78.748 67.0742 78.528 67.0227 78.5353 66.9418C78.6029 66.5297 78.696 66.1221 78.814 65.7215C78.9566 65.2557 79.0596 64.7786 79.122 64.2953C79.2687 63.2661 79.452 62.2369 79.606 61.2077C79.7601 60.1785 79.9361 59.3037 80.1121 58.3481C80.2147 57.7746 80.0021 56.9219 80.5961 56.5837C81.4028 56.1132 81.7915 55.1134 82.1581 54.2974C82.5745 53.3053 82.9152 52.283 83.1775 51.2392C83.5266 49.5469 84.1378 47.9197 84.9889 46.4167C85.8176 45.1449 87.255 44.8362 88.6557 44.8582C88.9267 44.8399 89.1983 44.835 89.4697 44.8435C89.8438 44.895 90.2031 44.8068 90.5771 44.8435C90.844 44.9071 91.0941 45.0275 91.3105 45.1964C91.3866 45.2443 91.4678 45.2838 91.5525 45.314C91.7399 45.3824 91.9214 45.466 92.0952 45.564C92.1685 45.6154 92.1538 45.7698 92.0512 45.711L91.9118 45.6448C92.6171 46.0699 93.3841 46.3824 94.1853 46.5711C94.6273 46.6837 95.0792 46.7527 95.5346 46.777C95.9532 46.8383 96.3655 46.9367 96.7667 47.071C96.7824 47.0744 96.7971 47.081 96.8102 47.0904C96.8232 47.0997 96.8342 47.1117 96.8424 47.1254C96.8507 47.1392 96.856 47.1545 96.8581 47.1705C96.8602 47.1864 96.8591 47.2026 96.8547 47.218C96.7507 47.583 96.6675 47.9536 96.6053 48.3281C96.5981 48.4677 96.5981 48.6075 96.6053 48.7471C96.6268 48.6921 96.6593 48.6421 96.7007 48.6001C96.8914 48.3649 97.0527 47.4239 97.434 47.3945C97.4615 47.3977 97.4875 47.4083 97.5094 47.4251C97.5314 47.442 97.5484 47.4644 97.5587 47.49C97.6614 47.7841 98.1527 48.1296 98.3874 48.306C98.7889 48.6028 99.2247 48.8497 99.6855 49.0412C100.514 49.3793 101.343 49.6881 102.186 49.9895C102.641 50.1512 103.096 50.2689 103.565 50.3865C103.858 50.4527 104.181 50.335 104.452 50.4526C105.047 50.7234 105.566 51.1376 105.963 51.6583C105.963 51.6583 106.036 51.8274 105.963 51.82C105.595 51.7855 105.224 51.8229 104.87 51.9303C105.149 52.3714 104.995 53.0403 104.995 53.5402C104.995 53.8122 104.614 54.1283 104.511 54.3709C104.408 54.6135 104.291 54.8708 104.188 55.1061C104.099 55.3992 104.052 55.7037 104.049 56.0103C104.046 56.0211 104.042 56.0313 104.035 56.0403C104.028 56.0492 104.02 56.0566 104.01 56.0622C104.001 56.0677 103.99 56.0711 103.979 56.0723C103.968 56.0735 103.957 56.0724 103.946 56.0691C103.675 56.003 103.426 55.8559 103.154 55.7971C102.736 55.7163 102.311 55.7162 101.893 55.6501C102.196 55.7978 102.486 55.9725 102.758 56.172C103.024 56.317 103.27 56.4949 103.492 56.7013C103.763 56.9954 103.154 57.532 103.03 57.7452C102.65 58.5941 102.417 59.5014 102.34 60.4285C102.166 61.1539 101.881 61.8481 101.497 62.4869C101.259 62.8265 101.094 63.2121 101.013 63.619C101.013 63.7366 101.057 64.0307 100.962 64.1409C100.937 64.1742 100.902 64.1981 100.862 64.2087C100.822 64.2194 100.779 64.2163 100.742 64.1998C100.504 64.1129 100.258 64.0513 100.008 64.016C100.061 64.0663 100.11 64.1204 100.155 64.1777C100.309 64.3688 100.573 64.5232 100.661 64.7585C100.749 64.9937 100.345 65.4054 100.213 65.5965C100.066 65.8357 99.9682 66.1021 99.9254 66.3799C99.8826 66.6577 99.8957 66.9412 99.9641 67.2138C100.052 67.4638 100.191 67.6255 99.9641 67.8166C99.7368 68.0078 99.2821 68.0592 99.3921 68.5003Z" fill="#BF4027"/>
<mask id="mask1_6514_28615" style="mask-type:luminance" maskUnits="userSpaceOnUse" x="78" y="44" width="20" height="25">
<path style="mix-blend-mode:multiply" d="M90.0934 68.4636C90.6728 66.2581 91.2888 64.0527 91.9929 61.8473C93.5622 56.9733 95.4176 52.217 97.3097 47.468C97.0164 47.6591 96.8697 48.4163 96.701 48.6295C96.6596 48.6715 96.6271 48.7215 96.6057 48.7765C96.5984 48.6369 96.5984 48.4971 96.6057 48.3575C96.6678 47.983 96.751 47.6124 96.855 47.2474C96.8594 47.232 96.8606 47.2158 96.8585 47.1999C96.8564 47.1839 96.851 47.1686 96.8428 47.1548C96.8345 47.1411 96.8235 47.1291 96.8105 47.1198C96.7975 47.1104 96.7827 47.1038 96.767 47.1004C96.3658 46.9661 95.9535 46.8677 95.535 46.8063C95.0796 46.7821 94.6276 46.7131 94.1856 46.6005C93.3845 46.4118 92.6175 46.0993 91.9122 45.6742L92.0515 45.7404C92.1542 45.7992 92.1689 45.6448 92.0955 45.5934C91.9217 45.4954 91.7402 45.4118 91.5528 45.3434C91.4681 45.3132 91.387 45.2737 91.3108 45.2258C91.0944 45.0569 90.8443 44.9365 90.5775 44.8729C90.1961 44.8362 89.8441 44.9244 89.4701 44.8729C89.1876 44.8411 88.9036 44.824 88.6194 44.8215C87.204 44.8215 85.7666 45.1082 84.9526 46.38C84.1015 47.8829 83.4903 49.5101 83.1412 51.2025C82.883 52.2408 82.5471 53.2582 82.1365 54.246C81.7698 55.0767 81.4031 56.0618 80.5744 56.5322C79.9804 56.8704 80.1931 57.7232 80.0904 58.2966C79.9144 59.2523 79.7311 60.2006 79.5844 61.1563C79.4377 62.112 79.247 63.2147 79.1004 64.2439C79.0379 64.7271 78.9349 65.2042 78.7924 65.67C78.6744 66.0706 78.5813 66.4782 78.5137 66.8904C78.5137 66.9712 78.7263 67.0227 79.049 67.0815C80.1491 67.1918 81.2491 67.2285 82.3712 67.28C84.3087 67.3743 86.236 67.62 88.1354 68.0151L90.0934 68.4636Z" fill="url(#paint2_linear_6514_28615)"/>
</mask>
<g mask="url(#mask1_6514_28615)">
<path style="mix-blend-mode:multiply" opacity="0.7" d="M90.0934 68.4636C90.6728 66.2581 91.2888 64.0527 91.9929 61.8473C93.5622 56.9733 95.4176 52.217 97.3097 47.468C97.0164 47.6591 96.8697 48.4163 96.701 48.6295C96.6596 48.6715 96.6271 48.7215 96.6057 48.7765C96.5984 48.6369 96.5984 48.4971 96.6057 48.3575C96.6678 47.983 96.751 47.6124 96.855 47.2474C96.8594 47.232 96.8606 47.2158 96.8585 47.1999C96.8564 47.1839 96.851 47.1686 96.8428 47.1548C96.8345 47.1411 96.8235 47.1291 96.8105 47.1198C96.7975 47.1104 96.7827 47.1038 96.767 47.1004C96.3658 46.9661 95.9535 46.8677 95.535 46.8063C95.0796 46.7821 94.6276 46.7131 94.1856 46.6005C93.3845 46.4118 92.6175 46.0993 91.9122 45.6742L92.0515 45.7404C92.1542 45.7992 92.1689 45.6448 92.0955 45.5934C91.9217 45.4954 91.7402 45.4118 91.5528 45.3434C91.4681 45.3132 91.387 45.2737 91.3108 45.2258C91.0944 45.0569 90.8443 44.9365 90.5775 44.8729C90.1961 44.8362 89.8441 44.9244 89.4701 44.8729C89.1876 44.8411 88.9036 44.824 88.6194 44.8215C87.204 44.8215 85.7666 45.1082 84.9526 46.38C84.1015 47.8829 83.4903 49.5101 83.1412 51.2025C82.883 52.2408 82.5471 53.2582 82.1365 54.246C81.7698 55.0767 81.4031 56.0618 80.5744 56.5322C79.9804 56.8704 80.1931 57.7232 80.0904 58.2966C79.9144 59.2523 79.7311 60.2006 79.5844 61.1563C79.4377 62.112 79.247 63.2147 79.1004 64.2439C79.0379 64.7271 78.9349 65.2042 78.7924 65.67C78.6744 66.0706 78.5813 66.4782 78.5137 66.8904C78.5137 66.9712 78.7263 67.0227 79.049 67.0815C80.1491 67.1918 81.2491 67.2285 82.3712 67.28C84.3087 67.3743 86.236 67.62 88.1354 68.0151L90.0934 68.4636Z" fill="url(#paint3_linear_6514_28615)"/>
</g>
<path d="M87.182 63.4793L87.8714 64.6482C87.8714 64.6482 88.0767 64.9128 86.6173 65.1113C85.1579 65.3098 79.4524 65.9273 78.5063 66.8904L79.6504 60.2227L87.182 63.4793Z" fill="#931A1D"/>
<path d="M84.4173 63.6484C85.4958 63.9978 86.5494 64.4202 87.5707 64.9129C87.9667 64.7732 87.8714 64.6482 87.8714 64.6482L87.182 63.4793L79.6504 60.2227L79.2544 62.5016C81.0177 62.6576 82.7532 63.0432 84.4173 63.6484Z" fill="#302B29"/>
<path d="M12.8631 36.4188C12.7682 36.4648 12.6774 36.5189 12.5918 36.5806L13.3252 36.1542L12.8631 36.4188Z" fill="#78263F"/>
<path d="M87.9443 64.6482L88.6777 60.9725L93.6499 36.5805C84.8642 31.3831 69.9623 27.9353 53.0657 27.9353C36.169 27.9353 21.2671 31.3831 12.4668 36.5879L17.439 61.0166L18.1723 64.6923C25.0586 59.9653 38.1344 56.8042 53.0657 56.8042C67.9969 56.8042 81.0801 59.9653 87.9443 64.6482Z" fill="#C93A27"/>
<path d="M17.4394 61.0607C17.4223 61.061 17.4055 61.0553 17.3921 61.0446C17.3787 61.0338 17.3695 61.0187 17.3661 61.0019L12.3866 36.6026C12.383 36.5869 12.3847 36.5706 12.3913 36.556C12.398 36.5414 12.4092 36.5293 12.4232 36.5217C21.5682 31.1037 36.7635 27.8765 53.0661 27.8765C69.3687 27.8765 84.6006 31.1037 93.709 36.5217C93.7211 36.525 93.7323 36.531 93.7417 36.5393C93.7511 36.5477 93.7584 36.5581 93.7631 36.5698C93.7677 36.5815 93.7696 36.5941 93.7686 36.6066C93.7675 36.6192 93.7636 36.6313 93.757 36.642C93.7505 36.6527 93.7415 36.6618 93.7309 36.6685C93.7202 36.6751 93.7082 36.6792 93.6957 36.6804C93.6832 36.6815 93.6706 36.6798 93.6589 36.6752C93.6472 36.6706 93.6367 36.6634 93.6283 36.654C84.5053 31.2581 69.3394 28.0382 53.0661 28.0382C36.7928 28.0382 21.6856 31.2508 12.5552 36.6246L17.5201 60.9651C17.5246 60.9855 17.5209 61.0069 17.51 61.0247C17.499 61.0426 17.4816 61.0554 17.4614 61.0607H17.4394Z" fill="#D72D27"/>
<path d="M37.8562 53.8637C35.3407 54.2386 34.0794 54.4591 31.5786 54.9884V44.6965C30.0532 45.0126 29.2905 45.189 27.7725 45.5713C27.4205 46.266 27.1733 47.0092 27.0391 47.7767C26.5196 50.1943 25.7401 52.5482 24.7143 54.7973C24.3818 55.5347 23.9419 56.2184 23.409 56.8263C22.8977 57.4463 22.2287 57.9162 21.4729 58.1863C20.9946 58.3306 20.4845 58.3306 20.0062 58.1863C19.3388 57.9951 19.0088 57.6202 19.0088 57.0542C19.0124 56.76 19.1188 56.4765 19.3095 56.2529C19.4705 56.0275 19.6953 55.8559 19.9548 55.7603C20.5048 55.5765 20.8055 55.7603 20.8422 56.4146C20.8789 57.0689 21.1209 57.2674 21.5756 57.1497C22.0932 56.9816 22.5601 56.6853 22.9332 56.2882C23.3062 55.8912 23.5733 55.4062 23.7096 54.8782C23.9987 53.8354 24.1273 52.7546 24.091 51.6729C24.091 50.8643 24.047 49.9527 23.959 48.9309C23.871 47.909 23.7316 46.799 23.6803 45.711C23.6635 44.364 23.9309 43.0287 24.465 41.7927C24.9617 40.5496 25.6121 39.374 26.4011 38.2934C26.9438 37.5583 27.8091 36.5144 28.9972 35.1911L28.7918 34.9191C26.5917 35.4411 25.5064 35.7351 23.3283 36.3894C22.9954 36.485 22.6752 36.6208 22.3749 36.7937C21.8176 37.1392 21.2675 37.4921 20.7322 37.845V37.4921C20.9595 37.0216 21.1355 36.6835 21.2529 36.4703C21.4127 36.0719 21.6356 35.7021 21.9129 35.3749C22.0586 35.3587 22.2061 35.3737 22.3456 35.419C22.5641 35.478 22.7944 35.478 23.0129 35.419C27.8479 33.9002 32.8041 32.8008 37.8268 32.1329L37.8562 53.8637ZM31.3733 43.0792V34.7574C30.5916 35.2978 29.997 36.0685 29.6719 36.9628C29.3916 37.5454 29.1467 38.1444 28.9385 38.7565C28.7292 39.3784 28.5553 40.0116 28.4178 40.6532C28.0805 42.1235 27.9118 42.9174 27.8898 42.9615V43.9099C29.2758 43.535 29.9725 43.3732 31.3733 43.0792ZM48.7686 42.0059C48.7778 43.0554 48.6745 44.1028 48.4606 45.1302C48.2894 46.0024 48.0441 46.8583 47.7272 47.6885C47.3385 48.6295 47.0525 49.2176 46.9498 49.4161C46.6712 49.9821 46.2752 50.6805 45.7618 51.5039C45.5418 51.8714 45.3438 52.2905 45.1311 52.6139C45.0609 52.7445 44.9638 52.8586 44.8462 52.9486C44.7286 53.0386 44.5932 53.1024 44.4491 53.1359C44.1117 53.1359 43.5324 52.7536 42.7257 51.9082C41.6127 50.7259 40.7628 49.3202 40.2323 47.7841C39.9355 46.85 39.6907 45.9003 39.4989 44.9391C39.2523 43.9373 39.1121 42.9122 39.0809 41.8809V38.2052C39.2202 38.1096 39.7556 37.7788 40.6943 37.2422L42.491 36.235H42.7917V41.0134C42.853 41.708 42.9584 42.398 43.107 43.0792C43.3054 44.1766 43.5848 45.2578 43.9431 46.3138C44.1986 47.0374 44.5383 47.7283 44.9551 48.3722C45.1595 48.7487 45.4709 49.0557 45.8498 49.2543C46.1584 48.7044 46.3693 48.1049 46.4732 47.4826C46.6364 46.6968 46.7175 45.8961 46.7152 45.0934C46.7343 44.0006 46.5322 42.9153 46.1211 41.9029C45.7184 40.9687 45.1178 40.1334 44.3611 39.4549C45.3731 38.3669 45.8791 37.8229 46.8912 36.7643C47.2553 37.0779 47.5672 37.4477 47.8152 37.8597C48.4915 39.1335 48.8204 40.5638 48.7686 42.0059ZM59.241 51.3789C59.241 51.5112 58.8376 51.8347 58.0163 52.3493C57.5675 52.6769 57.0734 52.937 56.5495 53.1212C56.2562 53.1212 55.9262 52.8124 55.5668 52.239C55.4495 52.0332 55.2662 51.7171 55.0315 51.2833C54.493 51.4601 53.9801 51.7073 53.5061 52.0185C52.9779 52.369 52.421 52.674 51.8414 52.93C51.6874 52.93 51.416 52.7021 51.0347 52.239C50.073 51.0177 49.5765 49.4932 49.6339 47.9384C49.6219 47.2862 49.7009 46.6354 49.8686 46.005C50.1827 45.1995 50.6316 44.4537 51.196 43.7996C51.8535 42.9702 52.7191 42.3308 53.7041 41.9471C54.5328 41.6015 54.9508 41.3001 54.9508 41.0502C54.9508 40.6312 54.6428 40.2121 54.0268 39.7857C53.6734 39.4789 53.2544 39.2575 52.8021 39.1388C52.5664 39.1754 52.3353 39.237 52.1127 39.3226C51.814 39.4251 51.5035 39.4893 51.1887 39.5137C50.8941 39.5178 50.6026 39.4523 50.338 39.3226C50.2165 39.2767 50.1123 39.194 50.04 39.0859C49.9677 38.9779 49.9309 38.8499 49.9346 38.7198C49.9235 38.6447 49.9293 38.5681 49.9516 38.4956C49.9739 38.4231 50.0121 38.3565 50.0635 38.3008C50.1148 38.2451 50.178 38.2016 50.2484 38.1736C50.3187 38.1456 50.3945 38.1338 50.47 38.139C50.7177 38.1623 50.9631 38.2065 51.2033 38.2714C51.3108 38.3022 51.4216 38.3195 51.5333 38.3228C52.097 38.2398 52.641 38.0555 53.1394 37.7788L55.4422 36.6761C55.7575 36.6761 56.3515 37.0731 57.2316 37.8523C58.1116 38.6316 58.6983 39.5137 58.6983 40.1607V50.1953C58.7421 50.4277 58.8238 50.6513 58.9403 50.8569C59.0282 51.0378 59.1287 51.2122 59.241 51.3789ZM54.8555 49.9895C54.8555 47.1518 54.8041 45.733 54.7675 42.9027C54.4472 43.0295 54.1564 43.2209 53.9129 43.4649C53.6695 43.709 53.4786 44.0005 53.3521 44.3216C53.0439 44.8789 52.8564 45.4951 52.8021 46.13C52.8148 47.0211 53.0121 47.8997 53.3814 48.7103C53.7701 49.6072 54.2028 50.1145 54.4375 50.063C54.5035 50.0483 54.6575 49.9895 54.8555 49.9895ZM64.3598 53.3564C62.7684 53.1873 61.9691 53.1212 60.3777 53.0109V33.8973C60.9865 33.6049 61.6166 33.3592 62.2624 33.1621C62.9418 32.8959 63.6438 32.6917 64.3598 32.552V53.3564ZM75.7343 47.0489C75.7457 47.9537 75.5658 48.8507 75.2062 49.6807C74.9915 50.1626 74.7046 50.6088 74.3555 51.004C73.7249 51.7391 73.2408 52.2978 72.8888 52.6654C71.8328 53.7607 71.1361 54.29 70.7987 54.2312C70.4093 54.1158 70.0607 53.8914 69.794 53.5843C69.398 53.1947 69.0607 52.8492 68.672 52.4522C67.7418 51.6002 66.9696 50.5897 66.3912 49.4675C65.8545 48.4088 65.578 47.2367 65.5845 46.0491C65.5785 45.2291 65.7201 44.4148 66.0026 43.6452C66.2542 42.9482 66.6266 42.3011 67.1026 41.7339C69.3027 39.1535 70.5421 37.9405 70.8574 37.992C71.4658 38.4798 71.9995 39.0544 72.4415 39.6975C73.2449 40.6301 73.9548 41.6396 74.5609 42.7116C74.9081 43.3933 75.1881 44.1073 75.3969 44.8435C75.6123 45.5591 75.7258 46.3015 75.7343 47.0489ZM73.0282 50.0336C73.0145 48.3532 72.6023 46.7002 71.8255 45.2111C70.6227 42.8513 69.6254 41.6162 68.782 41.4913C68.5473 41.4545 68.3787 41.6162 68.2907 41.9691C68.2004 42.3346 68.1561 42.71 68.1586 43.0865C68.1044 44.5996 68.4618 46.0989 69.1927 47.4238C70.1827 48.8245 71.3266 50.1093 72.6028 51.2539C72.7622 51.1367 72.8844 50.9759 72.9548 50.7908C73.0193 50.5464 73.0441 50.2932 73.0282 50.0409V50.0336ZM87.4754 56.5322C87.4754 56.7675 87.0574 57.0762 86.214 57.4658C85.7544 57.7526 85.2348 57.9287 84.6959 57.9804C84.5419 57.9363 84.2412 57.5173 83.8012 56.7601C83.4048 56.1844 83.1532 55.521 83.0679 54.8267V45.4463C83.0401 45.055 82.9433 44.6716 82.7819 44.3142C82.5839 43.8364 82.3565 43.5791 82.0852 43.4761C82.0037 43.4569 81.9183 43.4636 81.8408 43.4952C81.7632 43.5268 81.6974 43.5818 81.6525 43.6526C81.5366 43.7603 81.4636 43.9066 81.4471 44.0643V56.6057C79.8338 56.1573 79.0197 55.9515 77.399 55.5692V42.8807C77.3589 42.5245 77.2219 42.1863 77.003 41.9029C76.761 41.5207 76.6363 41.3222 76.6363 41.3075C76.6363 41.2928 77.1423 40.962 78.1544 40.6606C78.7086 40.4518 79.2882 40.3183 79.8778 40.2636C80.1638 40.3444 80.4938 40.7414 80.8531 41.4545C81.2125 42.1676 81.4545 42.5499 81.5865 42.5866C82.2749 42.5831 82.9582 42.4689 83.6106 42.2485C84.7253 41.9618 85.3046 41.8441 85.3413 41.8515C85.5686 41.925 85.8546 42.2779 86.1993 42.9027C86.5971 43.5705 86.8145 44.3306 86.83 45.1082V54.4885C86.8488 54.7992 86.9182 55.1046 87.0354 55.3928C87.182 55.7677 87.3287 56.1426 87.4754 56.5322Z" fill="#9B1E1F"/>
<path d="M37.8562 53.1286C35.3407 53.4961 34.0794 53.724 31.5786 54.246V43.9173C30.0532 44.2407 29.2905 44.4172 27.7725 44.7921C27.4205 45.4868 27.1733 46.23 27.0391 46.9975C26.5195 49.4174 25.7401 51.7738 24.7143 54.0254C24.3801 54.7619 23.9403 55.4454 23.409 56.0544C22.8985 56.6736 22.2291 57.1413 21.4729 57.4071C20.9946 57.5518 20.4844 57.5518 20.0062 57.4071C19.3388 57.2159 19.0088 56.841 19.0088 56.2676C19.0135 55.9759 19.1199 55.695 19.3095 55.4737C19.47 55.2462 19.6948 55.0721 19.9548 54.9738C20.5048 54.79 20.8055 55.0105 20.8422 55.628C20.8789 56.2455 21.1209 56.4808 21.5756 56.3632C22.0945 56.1975 22.5628 55.902 22.9362 55.5045C23.3096 55.1071 23.5758 54.6208 23.7096 54.0916C23.9992 53.049 24.1278 51.968 24.091 50.8864C24.091 50.0777 24.047 49.1662 23.959 48.1517C23.871 47.1372 23.7316 46.0124 23.6803 44.9244C23.6625 43.5797 23.93 42.2467 24.465 41.0135C24.9631 39.7826 25.6136 38.6193 26.4011 37.5509C26.9438 36.8158 27.8091 35.7793 28.9972 34.456C28.9165 34.3457 28.8798 34.2869 28.7918 34.1767C26.5917 34.6986 25.5064 34.9927 23.3283 35.6469C22.9965 35.7458 22.6767 35.8814 22.3749 36.0513C21.8176 36.4041 21.2675 36.7496 20.7322 37.1025V36.757C20.9595 36.2865 21.1355 35.941 21.2529 35.7278C21.415 35.3306 21.6377 34.9611 21.9129 34.6324C22.059 34.6245 22.2054 34.6419 22.3456 34.6839C22.5651 34.7353 22.7934 34.7353 23.0129 34.6839C27.8469 33.1616 32.8034 32.0621 37.8268 31.3978L37.8562 53.1286ZM31.3733 42.3367V34.0223C30.5946 34.5498 29.9997 35.308 29.6719 36.1909C29.3916 36.7735 29.1467 37.3725 28.9385 37.9847C28.7292 38.6065 28.5553 39.2397 28.4178 39.8813C28.0805 41.3516 27.9118 42.1529 27.8898 42.197V43.138C29.2758 42.7998 29.9725 42.6381 31.3733 42.3367ZM48.7686 41.2634C48.778 42.3153 48.6747 43.3653 48.4606 44.3951C48.2874 45.2668 48.0421 46.1225 47.7272 46.9534C47.3385 47.887 47.0525 48.4751 46.9498 48.681C46.6712 49.247 46.2752 49.9381 45.7618 50.7614C45.5418 51.129 45.3438 51.548 45.1311 51.8715C45.061 52.0028 44.964 52.1179 44.8465 52.2091C44.7289 52.3003 44.5935 52.3656 44.4491 52.4008C44.1117 52.4008 43.5324 52.0111 42.7257 51.1731C41.612 49.9913 40.762 48.5855 40.2323 47.049C39.9363 46.1172 39.6915 45.1699 39.4989 44.2113C39.2529 43.2094 39.1128 42.1844 39.0809 41.1531V37.4774C39.2202 37.3819 39.7556 37.0584 40.6943 36.5218L42.491 35.5073H42.7917V40.2857C42.8525 40.9803 42.9578 41.6703 43.107 42.3514C43.305 43.4569 43.587 44.5456 43.9504 45.6081C44.2048 46.3215 44.542 47.0025 44.9551 47.6371C45.158 48.0146 45.4698 48.3221 45.8498 48.5192C46.1584 47.9719 46.3693 47.3749 46.4732 46.7549C46.6364 45.9666 46.7175 45.1634 46.7152 44.3583C46.7343 43.2655 46.5322 42.1802 46.1211 41.1678C45.7184 40.2336 45.1178 39.3983 44.3611 38.7198C45.3731 37.6318 45.8791 37.0952 46.8912 36.0292C47.256 36.3533 47.5678 36.7329 47.8152 37.154C48.4843 38.4173 48.8129 39.8338 48.7686 41.2634ZM59.241 50.6364C59.241 50.7761 58.8376 51.0922 58.0163 51.6068C57.5673 51.9249 57.0728 52.1728 56.5495 52.342C56.2562 52.342 55.9262 52.0406 55.5668 51.4598C55.4495 51.2613 55.2662 50.9452 55.0315 50.5041C54.4943 50.684 53.9818 50.931 53.5061 51.2392C52.9803 51.6062 52.4232 51.926 51.8414 52.1949C51.6874 52.1949 51.416 51.967 51.0347 51.4598C50.0741 50.2408 49.5776 48.719 49.6339 47.1666C49.6248 46.5265 49.7038 45.8883 49.8686 45.2699C50.1828 44.4645 50.6317 43.7187 51.196 43.0645C51.8512 42.2344 52.7177 41.5969 53.7041 41.2193C54.5328 40.8738 54.9508 40.5724 54.9508 40.3151C54.9508 39.9034 54.6428 39.477 54.0268 39.0506C53.6719 38.7443 53.2536 38.5208 52.8021 38.3964C52.5673 38.4369 52.3366 38.4984 52.1127 38.5801C51.8149 38.6862 51.504 38.7505 51.1887 38.7713C50.8946 38.7779 50.6032 38.715 50.338 38.5875C50.2165 38.5394 50.1127 38.4551 50.0406 38.346C49.9685 38.2369 49.9315 38.1082 49.9346 37.9773C49.9346 37.6024 50.1106 37.4113 50.47 37.4039C50.7182 37.4194 50.964 37.4613 51.2033 37.5289C51.3106 37.5615 51.4214 37.5812 51.5333 37.5877C52.0971 37.501 52.641 37.3143 53.1394 37.0363C53.8728 36.6835 54.6648 36.3012 55.4422 35.9336C55.7575 35.9336 56.3515 36.3306 57.2316 37.1099C58.1116 37.8891 58.6983 38.7713 58.6983 39.4182V49.4602C58.7445 49.6919 58.8261 49.9151 58.9403 50.1218C59.0271 50.3009 59.1276 50.473 59.241 50.6364ZM54.8408 49.2103C54.8408 46.38 54.7895 44.9612 54.7528 42.1235C54.4323 42.2519 54.1414 42.4446 53.898 42.6899C53.6546 42.9352 53.4638 43.2278 53.3374 43.5497C53.0285 44.1189 52.8459 44.7483 52.8021 45.3949C52.8156 46.2858 53.0129 47.1644 53.3814 47.9752C53.7701 48.8721 54.2028 49.3793 54.4375 49.3205C54.5035 49.3058 54.6575 49.2544 54.8555 49.2103H54.8408ZM64.3598 52.6213C62.7684 52.4522 61.9691 52.3787 60.3777 52.2758V33.1622C60.9859 32.8684 61.6161 32.6226 62.2624 32.427C62.9443 32.1681 63.6456 31.9641 64.3598 31.8169V52.6213ZM75.7343 46.3138C75.7466 47.2187 75.5666 48.1159 75.2062 48.9456C74.9927 49.4304 74.7058 49.8792 74.3555 50.2762C73.7249 51.0114 73.2408 51.5627 72.8888 51.9303C71.8328 53.0256 71.1361 53.5623 70.7987 53.5035C70.4077 53.3876 70.0586 53.1603 69.794 52.8492C69.398 52.4669 69.0607 52.1141 68.672 51.7171C67.7455 50.8787 66.9734 49.8833 66.3912 48.7765C65.8553 47.7175 65.5788 46.5456 65.5845 45.3581C65.5731 44.5209 65.7147 43.6887 66.0026 42.9028C66.2559 42.2065 66.6281 41.5597 67.1026 40.9914C69.3027 38.4111 70.5421 37.1981 70.8574 37.2569C71.468 37.7423 72.002 38.3173 72.4415 38.9624C73.2445 39.8926 73.9544 40.8997 74.5609 41.9691C74.9085 42.6532 75.1885 43.3697 75.3969 44.1084C75.6118 44.8241 75.7253 45.5665 75.7343 46.3138ZM73.0282 49.3058C73.0145 47.6231 72.6023 45.9677 71.8255 44.476C70.6227 42.1186 69.6083 40.8934 68.782 40.8003C68.5473 40.7635 68.3787 40.9179 68.2907 41.2708C68.2013 41.6364 68.157 42.0117 68.1586 42.3882C68.1045 43.9035 68.4619 45.4052 69.1927 46.7328C70.1873 48.1165 71.3309 49.3862 72.6028 50.5188C72.7589 50.3983 72.8804 50.2385 72.9548 50.0557C73.0182 49.8111 73.0429 49.5581 73.0282 49.3058ZM87.4754 55.7898C87.4754 56.0324 87.0574 56.3338 86.214 56.7307C85.7509 57.01 85.233 57.1855 84.6959 57.2453C84.5419 57.1939 84.2412 56.7822 83.8012 56.025C83.4035 55.4472 83.1518 54.7812 83.0679 54.0842V44.7112C83.0409 44.3197 82.944 43.9363 82.7819 43.5791C82.5839 43.0939 82.3565 42.844 82.0852 42.741C82.0045 42.7222 81.9199 42.7282 81.8427 42.7584C81.7655 42.7886 81.6992 42.8415 81.6525 42.9101C81.5376 43.0217 81.465 43.1698 81.4471 43.3291V55.8706C79.8338 55.4222 79.0197 55.2164 77.399 54.8341V42.1456C77.3611 41.7889 77.2239 41.45 77.003 41.1678C76.8702 40.9735 76.7478 40.7723 76.6363 40.565C76.6363 40.4474 77.1423 40.2269 78.1544 39.9181C78.7083 39.7096 79.2882 39.5785 79.8778 39.5285C80.1638 39.602 80.4938 39.999 80.8531 40.7194C81.2125 41.4398 81.4545 41.8148 81.5865 41.8515C82.2755 41.8478 82.9592 41.7311 83.6106 41.506C84.18 41.3448 84.7578 41.2147 85.3413 41.1164C85.5686 41.1899 85.8546 41.5428 86.1993 42.1603C86.5962 42.8284 86.8134 43.5883 86.83 44.3657V53.7461C86.8495 54.059 86.9189 54.3667 87.0354 54.6576C87.182 55.0252 87.3287 55.4075 87.4754 55.7898Z" fill="#EDBC64"/>
<g opacity="0.6">
<path d="M31.5782 54.1651V54.246L33.5289 53.849L31.5782 54.1651ZM19.9837 57.3777C20.462 57.5224 20.9722 57.5224 21.4505 57.3777C22.2066 57.1119 22.8761 56.6442 23.3865 56.025C23.5332 55.8559 23.6799 55.6721 23.8192 55.481L22.5798 55.7089C22.268 55.978 21.9032 56.1784 21.5091 56.297C21.4494 56.3278 21.3836 56.3448 21.3164 56.3466C21.2493 56.3484 21.1826 56.3351 21.1213 56.3075C21.06 56.28 21.0057 56.239 20.9624 56.1875C20.9191 56.1361 20.8879 56.0755 20.8711 56.0103C20.2355 56.1132 19.5975 56.2014 18.957 56.275C19.0084 56.8337 19.3384 57.1865 19.9837 57.3777ZM23.3572 35.6322C25.5573 34.9927 26.628 34.6986 28.8207 34.1619C28.9087 34.2722 28.9454 34.331 29.0261 34.4413C27.838 35.7645 26.9727 36.8011 26.43 37.5362C26.0266 38.0802 25.6966 38.6095 25.3593 39.1241L26.4006 38.8668L28.8207 38.2714C28.8574 38.1758 28.8867 38.0802 28.9161 37.9847C29.1243 37.3725 29.3692 36.7735 29.6494 36.1909C29.9773 35.308 30.5721 34.5498 31.3508 34.0223V37.698C33.2722 37.2618 35.201 36.8648 37.1371 36.507L37.8337 36.3821V31.3831C32.8104 32.0474 27.8538 33.1469 23.0199 34.6692C22.8004 34.7206 22.572 34.7206 22.3525 34.6692C22.2123 34.6272 22.0659 34.6097 21.9198 34.6177C21.6446 34.9464 21.4219 35.3159 21.2598 35.7131C21.1424 35.9263 20.9664 36.2718 20.7391 36.7423V37.0657C21.2745 36.7129 21.8245 36.3306 22.3818 36.0145C22.6916 35.8507 23.0188 35.7225 23.3572 35.6322ZM32.9496 41.2266L31.3728 41.5795V42.3146C29.9721 42.6161 29.2754 42.7778 27.8894 43.1159V42.3808C26.496 42.7263 25.1099 43.1159 23.7239 43.4688C23.6573 43.9238 23.6303 44.3838 23.6432 44.8435C23.6432 45.5787 23.7459 46.3138 23.8192 46.9975L27.2367 46.1227C27.3422 45.6494 27.5151 45.1939 27.75 44.77C29.2681 44.3951 30.0308 44.2187 31.5562 43.8952V45.0347L33.9983 44.4245C35.2743 44.1157 36.5577 43.8217 37.8337 43.5276V40.2195C36.2204 40.543 34.585 40.8664 32.9496 41.2266ZM36.6164 47.7253L37.8557 47.4827V47.4386L36.6164 47.7253ZM40.2245 47.0489L44.2287 46.3138C44.2287 46.2403 44.1627 46.1668 44.1333 46.0859C42.8133 46.3653 41.4981 46.652 40.1878 46.946C40.2024 46.9795 40.2146 47.0138 40.2245 47.0489ZM48.1668 45.5787C48.1668 45.461 48.2328 45.3508 48.2621 45.2331H48.1448L46.6781 45.5272V45.836L48.1668 45.5787ZM42.7839 40.2121V39.4035C41.5445 39.5946 40.3052 39.8078 39.0731 40.021V41.1237C39.0867 41.832 39.1603 42.5378 39.2931 43.2336C40.5692 42.9469 41.8452 42.6822 43.1213 42.4176V42.2779C42.9647 41.5973 42.852 40.9073 42.7839 40.2121ZM44.7787 39.1021C45.3441 39.7059 45.7984 40.4053 46.1207 41.1678C46.2085 41.379 46.2844 41.595 46.3481 41.8148L48.7682 41.3663V41.3002C48.7704 40.3858 48.647 39.4755 48.4015 38.5948C47.2061 38.7566 45.9961 38.9624 44.7787 39.1021ZM54.7891 44.0643V44.373L58.7272 43.682V43.4541C57.4218 43.6452 56.1018 43.8511 54.7891 44.0643ZM53.0143 44.351C52.0096 44.5201 51.0049 44.7039 50.0075 44.8876C49.9522 45.0015 49.9056 45.1195 49.8682 45.2405L52.9043 44.7039C52.9337 44.5911 52.9703 44.4735 53.0143 44.351ZM53.535 37.9773C52.3763 38.1096 51.2249 38.242 50.0735 38.389C50.1447 38.472 50.232 38.5396 50.3302 38.5875C50.5954 38.715 50.8869 38.7779 51.1809 38.7713C51.4962 38.7505 51.8072 38.6862 52.105 38.5801C52.3288 38.4984 52.5595 38.4369 52.7943 38.3964C53.242 38.5174 53.6576 38.7358 54.0117 39.0359C54.613 39.4476 54.9211 39.8593 54.9357 40.2636C56.1971 40.0578 57.4658 39.8593 58.7272 39.6681V39.4182C58.6279 38.6804 58.2531 38.0079 57.6785 37.5362C56.3071 37.6759 54.9211 37.8156 53.535 37.9773ZM64.3594 42.6381L60.3773 43.1895V43.3732L64.3594 42.6381ZM60.3773 37.2716V39.4255C61.7047 39.2344 63.032 39.0433 64.3594 38.8668V36.904L60.3773 37.2716ZM64.3594 33.0813V31.758C63.6458 31.8981 62.9445 32.0947 62.262 32.3462C61.6157 32.5417 60.9855 32.7875 60.3773 33.0813V33.368C61.7047 33.2871 63.0687 33.1769 64.3594 33.0813ZM63.6994 52.2537L62.438 52.4302L64.3594 52.6213V52.1949L63.6994 52.2537ZM70.175 38.117L71.5904 37.9479C71.1943 37.4995 70.945 37.2716 70.857 37.2569C70.769 37.2422 70.285 37.5362 69.6396 38.1832L70.175 38.117ZM68.6129 51.6656C68.6281 51.6846 68.6453 51.7018 68.6642 51.7171C69.0163 52.0847 69.3976 52.4522 69.7863 52.8492C70.0509 53.1602 70.3999 53.3876 70.791 53.5035C71.1283 53.5623 71.825 53.0256 72.8811 51.9303C73.0717 51.7318 73.3064 51.4818 73.5704 51.1951C71.913 51.3348 70.263 51.4598 68.6129 51.6656ZM86.8443 45.9609V45.6889L84.4315 45.9903L83.0455 46.1741V46.4755C84.0722 46.3506 85.0989 46.2256 86.1256 46.0712C86.3676 46.0418 86.6096 45.9977 86.8443 45.9609ZM81.4027 46.3947L77.3546 46.946V47.0489C78.704 46.9215 80.0533 46.7843 81.4027 46.6373V46.3947ZM77.3766 50.8276V54.8047C78.9973 55.1869 79.8113 55.3928 81.4247 55.8412V50.4306C80.0753 50.5776 78.726 50.7246 77.3766 50.8276ZM86.8443 53.7461V49.7763H86.7783C85.5389 49.9527 84.2922 50.0998 83.0455 50.2468V54.0769C83.1293 54.7738 83.381 55.4399 83.7788 56.0176C84.2188 56.7528 84.5122 57.1865 84.6735 57.238C85.2106 57.1782 85.7285 57.0026 86.1916 56.7234C87.0349 56.3264 87.453 55.9882 87.453 55.7824C87.3063 55.4001 87.1596 55.0473 87.0276 54.6503C86.9194 54.3604 86.8575 54.0553 86.8443 53.7461Z" fill="#FFDC83"/>
</g>
<path d="M75.4699 15.3277C75.8439 13.3795 77.5306 11.9313 79.3127 12.1519C79.7014 9.9979 79.8627 8.90255 80.2367 6.72653C76.1226 8.60849 74.0692 9.55682 69.823 11.3285C69.823 11.3285 69.9257 15.313 69.933 16.9964C69.9404 18.6799 68.987 18.9593 66.7722 18.8784C64.5575 18.7975 63.6261 18.4594 63.6261 16.82C63.6261 15.1806 63.5601 11.2844 63.5601 11.2844C59.798 7.3514 57.9792 5.25625 54.3491 1.15417C50.6823 5.25625 48.9002 7.34405 45.1381 11.2844C45.1381 11.2844 45.0794 15.188 45.0721 16.82C45.0647 18.452 44.148 18.7902 41.926 18.8784C39.7039 18.9666 38.7505 18.6726 38.7652 16.9964C38.7798 15.3203 38.8752 11.3285 38.8752 11.3285C34.6584 9.54212 32.5756 8.60849 28.4395 6.72653C28.8135 8.93195 28.9748 9.9979 29.3635 12.1519C31.1382 11.924 32.8323 13.3795 33.2063 15.3277C33.5803 17.2758 32.9203 18.8784 31.2556 19.2607C31.7916 21.1136 32.4809 22.9185 33.3163 24.6566C37.0344 24.0832 38.3912 23.8626 42.1166 23.5392C46.1678 23.1557 50.236 22.9815 54.3051 23.0172C58.3886 22.9751 62.4715 23.1444 66.5376 23.5245C70.285 23.8479 71.5978 23.9876 75.3379 24.5537C76.1832 22.8461 76.8848 21.0706 77.4353 19.246C75.7559 18.8784 75.0959 17.217 75.4699 15.3277ZM54.3491 18.4888C53.9273 18.4977 53.5081 18.4214 53.1163 18.2646C52.7245 18.1078 52.3681 17.8736 52.0685 17.576C51.7688 17.2783 51.5319 16.9233 51.3719 16.532C51.2118 16.1407 51.132 15.7211 51.137 15.2983C51.1072 14.8571 51.1682 14.4146 51.3162 13.998C51.4641 13.5815 51.6959 13.1999 51.9971 12.8769C52.2983 12.5538 52.6624 12.2963 53.067 12.1202C53.4716 11.9441 53.908 11.8533 54.3491 11.8533C54.7902 11.8533 55.2266 11.9441 55.6312 12.1202C56.0358 12.2963 56.3999 12.5538 56.7011 12.8769C57.0023 13.1999 57.2341 13.5815 57.382 13.998C57.53 14.4146 57.591 14.8571 57.5612 15.2983C57.5662 15.7211 57.4863 16.1407 57.3263 16.532C57.1663 16.9233 56.9294 17.2783 56.6297 17.576C56.3301 17.8736 55.9737 18.1078 55.5819 18.2646C55.1901 18.4214 54.7709 18.4977 54.3491 18.4888Z" fill="#D08429"/>
<path d="M75.4699 14.1808C75.8439 12.2327 77.5306 10.7771 79.3127 10.9977C79.7014 8.84373 79.8627 7.75572 80.2367 5.57971C76.1006 7.45432 74.0178 8.39529 69.801 10.1743C69.801 10.1743 69.9037 14.1661 69.911 15.8423C69.9184 17.5184 68.965 17.8051 66.7502 17.7242C64.5355 17.6434 63.6041 17.3052 63.6041 15.6732C63.6041 14.0412 63.5381 10.1376 63.5381 10.1376C59.798 6.18988 57.9792 4.10208 54.3491 0C50.6823 4.10208 48.9002 6.18988 45.1381 10.1376C45.1381 10.1376 45.0794 14.0338 45.0721 15.6732C45.0647 17.3125 44.148 17.6434 41.926 17.7242C39.7039 17.8051 38.7505 17.5184 38.7652 15.8423C38.7798 14.1661 38.8752 10.1743 38.8752 10.1743C34.6584 8.39529 32.5756 7.45432 28.4395 5.57971C28.8135 7.78513 28.9748 8.84373 29.3635 10.9977C31.1382 10.7771 32.8323 12.2327 33.2063 14.1808C33.3158 14.5897 33.3437 15.0162 33.2882 15.4359C33.2328 15.8556 33.0951 16.2602 32.8832 16.6263C32.6712 16.9925 32.3891 17.3131 32.0532 17.5696C31.7172 17.8262 31.334 18.0136 30.9255 18.1212C31.4079 19.972 32.0433 21.7794 32.825 23.5245C36.5431 22.9584 38.4132 22.7305 42.1606 22.4144C46.2117 22.0285 50.2799 21.8518 54.3491 21.8851C58.4183 21.8518 62.4865 22.0285 66.5376 22.4144C70.285 22.7305 72.1551 22.9584 75.8732 23.5245C76.6424 21.7782 77.2655 19.9709 77.736 18.1212C77.3288 18.012 76.9472 17.8234 76.6128 17.5662C76.2785 17.309 75.9981 16.9882 75.7876 16.6222C75.5771 16.2562 75.4407 15.8522 75.3862 15.4332C75.3317 15.0143 75.3601 14.5887 75.4699 14.1808ZM54.3491 17.3346C53.927 17.3445 53.5073 17.269 53.1151 17.1126C52.7228 16.9561 52.3661 16.7219 52.0662 16.4241C51.7663 16.1262 51.5294 15.7708 51.3698 15.379C51.2101 14.9873 51.1309 14.5672 51.137 14.1441C51.1072 13.7029 51.1682 13.2604 51.3162 12.8438C51.4641 12.4273 51.6959 12.0457 51.9971 11.7227C52.2983 11.3997 52.6624 11.1421 53.067 10.966C53.4716 10.79 53.908 10.6991 54.3491 10.6991C54.7902 10.6991 55.2266 10.79 55.6312 10.966C56.0358 11.1421 56.3999 11.3997 56.7011 11.7227C57.0023 12.0457 57.2341 12.4273 57.382 12.8438C57.53 13.2604 57.591 13.7029 57.5612 14.1441C57.5673 14.5672 57.4881 14.9873 57.3284 15.379C57.1688 15.7708 56.9319 16.1262 56.632 16.4241C56.3321 16.7219 55.9754 16.9561 55.5831 17.1126C55.1909 17.269 54.7712 17.3445 54.3491 17.3346Z" fill="#EDBC64"/>
<path opacity="0.6" d="M63.6044 13.3281C63.6044 11.7475 63.5604 10.1376 63.5604 10.1376L63.3477 9.91704C61.3529 10.8139 59.3069 11.7549 57.2461 12.7106C57.4514 13.1606 57.5589 13.6492 57.5615 14.1441C57.5686 14.7443 57.4031 15.3339 57.0848 15.8423C59.2042 14.9748 61.375 14.1294 63.6044 13.3281ZM80.259 5.57971C76.1228 7.45432 74.0401 8.3953 69.8233 10.1743V11.2844C73.0941 10.292 76.3942 9.4686 79.7163 8.82168C79.885 7.82189 80.0317 6.90296 80.259 5.57971ZM51.4159 15.4747C46.2017 17.9962 41.1342 20.5839 37.0127 22.9143C38.5748 22.7158 40.0781 22.5688 42.1462 22.3924L43.1729 22.3041C46.6225 20.5129 50.1298 18.8359 53.6893 17.2758C53.1934 17.1819 52.7276 16.9691 52.3317 16.6554C51.9358 16.3418 51.6216 15.9366 51.4159 15.4747ZM60.3116 6.67507C58.3902 4.57992 56.7694 2.74207 54.3493 0C50.6825 4.10208 48.9005 6.18988 45.1383 10.1376V10.733C50.0519 9.38038 55.1707 8.00567 60.3116 6.67507Z" fill="#FFDC83"/>
<path opacity="0.3" d="M75.4702 14.1808C75.5988 13.5132 75.8883 12.8873 76.3135 12.3577C74.3188 13.1957 72.1627 14.1147 69.926 15.0997V15.8349C69.926 17.511 68.9799 17.7977 66.7652 17.7168C66.0783 17.7195 65.3945 17.6255 64.7338 17.4375C61.6977 18.8416 58.6249 20.3339 55.6768 21.8483C59.7102 21.8483 62.1303 21.988 66.5305 22.3703C70.278 22.6864 72.148 22.9143 75.8662 23.4803C76.6356 21.7486 77.2611 19.9561 77.7363 18.1212C77.3291 18.012 76.9475 17.8234 76.6131 17.5662C76.2788 17.309 75.9983 16.9882 75.7879 16.6222C75.5774 16.2562 75.441 15.8521 75.3864 15.4332C75.3319 15.0143 75.3604 14.5887 75.4702 14.1808Z" fill="#FFDC83"/>
<path opacity="0.6" d="M29.3855 11.0271C31.1309 10.8066 32.781 12.2107 33.199 14.1C35.0177 13.5854 36.8658 13.0487 38.8238 12.5121C38.8238 11.2624 38.8752 10.2038 38.8752 10.2038C34.6584 8.42472 32.5756 7.48374 28.4395 5.60913C28.8135 7.81455 28.9748 8.87315 29.3635 11.0271H29.3855Z" fill="#FFDC83"/>
<path d="M56.212 59.0023C54.9506 58.9509 53.6672 58.9214 52.3618 58.9214H51.3791C47.7154 67.2441 41.3419 74.0737 33.3018 78.2924C50.4991 87.3713 53.5865 104.993 53.5865 104.993C53.5865 104.993 56.828 87.3934 74.1206 78.4247C66.1293 74.1702 59.8153 67.3225 56.212 59.0023Z" fill="#C93A27"/>
<path d="M55.6401 66.1626C55.1487 67.008 54.7087 67.8534 54.2687 68.6694C53.374 70.5073 52.6406 72.078 52.0686 73.3817C51.3792 74.8961 50.7559 76.3222 50.1912 77.6749C49.3772 79.6451 48.9665 80.6154 48.9665 80.6669C48.5118 81.6152 47.8664 82.7988 47.0524 84.2323C46.3342 85.5165 45.5433 86.7585 44.6836 87.9521C43.7582 89.15 42.7459 90.2779 41.6549 91.3264C40.4845 92.4184 39.2012 93.382 37.8267 94.2008C37.7242 94.1486 37.6282 94.0844 37.5407 94.0097C37.4951 93.9651 37.4596 93.9111 37.4368 93.8515C37.414 93.7918 37.4044 93.7279 37.4087 93.6642C37.4087 93.4583 37.9954 92.6129 39.1688 91.1353C39.755 90.4388 40.2917 89.7018 40.7748 88.9299C41.2753 88.1201 41.7165 87.2749 42.0949 86.401C42.5202 85.46 42.9456 84.4749 43.3783 83.4604C44.5321 81.108 45.5099 78.9369 46.3117 76.9471C46.8006 75.7219 47.2895 74.3423 47.7784 72.8083C47.7784 72.2937 45.9964 72.0731 42.4176 72.0731C41.8857 72.0805 41.3575 72.1622 40.8482 72.3157C40.2712 72.4939 39.737 72.7892 39.2788 73.1832H38.1787V72.3745C39.4393 70.4292 41.0659 68.7487 42.9676 67.427C44.1248 66.6971 45.4652 66.3121 46.8324 66.317C47.2431 66.317 47.8811 66.3684 48.7465 66.464C49.4057 66.5516 50.0691 66.6031 50.7339 66.6184C51.4012 66.6184 51.9219 66.5669 52.3033 66.5449C53.2208 66.5086 54.1099 66.2158 54.87 65.6995H55.5227L55.6401 66.1626Z" fill="url(#paint4_linear_6514_28615)"/>
<path d="M37.8559 95.6931L37.2179 95.3697C37.0167 95.2724 36.8293 95.1488 36.6605 95.0021C36.4704 94.8363 36.3191 94.6303 36.2177 94.399C36.1163 94.1677 36.0671 93.9168 36.0738 93.6642C36.0738 93.1202 36.2572 92.6644 38.1126 90.3193C39.2492 88.9743 40.1809 87.4681 40.8774 85.8496C41.2954 84.9086 41.7134 83.9309 42.1461 82.9091V82.8503C43.2755 80.5419 44.2362 78.3806 45.0135 76.4251C45.3655 75.5283 45.7469 74.5432 46.0769 73.4846C44.8296 73.3555 43.5758 73.3015 42.3221 73.3228C41.9168 73.332 41.5147 73.3963 41.1267 73.514C40.7222 73.6398 40.3478 73.8475 40.0267 74.1242L39.66 74.4329H36.8732V71.904L37.1152 71.5659C38.4604 69.4725 40.205 67.6662 42.2487 66.2508C43.6144 65.3952 45.1925 64.9418 46.8029 64.9423C47.4948 64.9618 48.1851 65.0182 48.871 65.1113C49.4792 65.1908 50.0912 65.2374 50.7044 65.251C51.3058 65.251 51.8191 65.2069 52.1711 65.1775C52.8177 65.1584 53.4477 64.9682 53.9972 64.6261L54.3565 64.3321H56.5126L56.9746 66.339L56.7253 66.7801C56.2486 67.6329 55.8086 68.4709 55.4126 69.2575C54.5032 71.0807 53.7478 72.6539 53.2125 73.9257C52.5305 75.3959 51.9071 76.8662 51.3571 78.1821C50.6237 79.9244 50.3451 80.6301 50.2277 80.9095V80.9683L50.0957 81.2403C49.6264 82.2107 48.9737 83.4457 48.145 84.916C47.396 86.2492 46.5709 87.5378 45.6735 88.7755C44.708 90.0281 43.6515 91.2075 42.5128 92.3042C41.2693 93.4583 39.9103 94.4807 38.4573 95.355L37.8559 95.6931ZM44.5368 83.975C44.1042 84.9969 43.6788 85.9746 43.2608 86.9156C43.0041 87.4963 42.7328 88.0477 42.4541 88.5623C42.8501 88.1139 43.2388 87.636 43.6201 87.1435C44.4472 85.9983 45.2063 84.8053 45.8936 83.5707C46.6856 82.1813 47.3163 81.0051 47.7636 80.0935C47.9176 79.6818 48.2476 78.8879 48.959 77.1529C49.5164 75.8003 50.1544 74.3447 50.8511 72.8156C51.4378 71.5218 52.2005 69.9192 53.1318 68.0592L53.3445 67.6329C53.0658 67.6843 52.7651 67.7284 52.4498 67.7652C52.0024 67.7652 51.4671 67.824 50.7851 67.8461C50.0494 67.8298 49.3151 67.7758 48.585 67.6843C48.0012 67.6063 47.4137 67.5597 46.8249 67.5446C45.6984 67.5411 44.5942 67.8598 43.6421 68.4636C42.6414 69.1201 41.742 69.9201 40.9727 70.8381C41.4229 70.7362 41.8826 70.682 42.3441 70.6763C46.9569 70.6763 49.0103 70.9778 49.0103 72.7568V72.9553L48.9517 73.1538C48.4603 74.7049 47.9616 76.0943 47.4849 77.3735C46.6782 79.3951 45.6882 81.6005 44.5368 83.975Z" fill="#C93A27"/>
<path d="M70.6811 83.7544C70.5936 84.5852 70.3176 85.3848 69.8744 86.0922C68.999 87.6268 67.9183 89.0342 66.6623 90.2751C65.0562 91.9145 64.1835 92.782 64.0588 92.8849C62.9701 93.6774 61.6488 94.0836 60.304 94.039C59.3142 94.0427 58.3349 93.8355 57.4309 93.4312C56.527 93.0269 55.719 92.4348 55.0605 91.694C53.8138 90.3609 53.1904 89.0818 53.1904 87.8565C53.2902 86.7382 53.7363 85.6792 54.4665 84.8277C55.3245 83.6736 56.1972 82.5268 57.0919 81.3726C56.4261 80.7887 55.835 80.1245 55.3318 79.3951C54.837 78.682 54.5803 77.8302 54.5985 76.9618C54.6563 75.6706 55.0981 74.4263 55.8672 73.389C56.6543 72.2961 57.3168 71.3575 57.8546 70.5734C58.7375 69.1708 59.8508 67.928 61.1474 66.8977C61.9909 66.3452 62.9779 66.0537 63.9855 66.0596C65.4149 66.0281 66.8122 66.4872 67.9457 67.3608C68.4847 67.7724 68.9173 68.3077 69.207 68.9218C69.4967 69.5359 69.635 70.2107 69.6104 70.8895C69.5645 72.6137 68.8488 74.2518 67.6156 75.4547C66.2858 76.8858 65.6233 77.866 65.6282 78.3953C66.8257 79.1723 67.9766 80.0192 69.075 80.9315C69.5339 81.2541 69.9159 81.6746 70.1936 82.1626C70.4712 82.6507 70.6377 83.1943 70.6811 83.7544ZM65.7016 87.1287C65.7016 86.3103 64.7238 85.3129 62.7681 84.1367C61.0325 83.083 59.9227 82.5586 59.4387 82.5635C59.2553 82.5635 59.006 82.8429 58.7053 83.4089C58.4219 83.8493 58.2576 84.356 58.2286 84.8792C58.2286 85.9305 58.8593 86.9302 60.1427 87.8712C61.0823 88.6565 62.2504 89.1156 63.4722 89.1798C64.025 89.1511 64.5476 88.918 64.9389 88.5255C65.1609 88.3634 65.3443 88.1542 65.4762 87.9127C65.6081 87.6712 65.685 87.4035 65.7016 87.1287ZM64.2862 74.9254C64.2199 74.1515 63.8508 73.4353 63.2595 72.9332C62.9214 72.5637 62.5115 72.2674 62.0549 72.0626C61.5984 71.8578 61.1048 71.7488 60.6047 71.7423C60.1836 71.7283 59.7736 71.8785 59.4607 72.1613C59.3162 72.2921 59.2009 72.4521 59.1226 72.6307C59.0442 72.8094 59.0045 73.0027 59.006 73.1978C59.006 74.0457 59.6513 74.9548 60.9421 75.9252C62.0568 76.7706 62.7828 77.1896 63.1421 77.1896C63.5015 77.1896 63.6188 76.9103 63.8755 76.3442C64.1164 75.908 64.2567 75.4232 64.2862 74.9254Z" fill="url(#paint5_linear_6514_28615)"/>
<path d="M60.3043 95.3476C59.14 95.3547 57.9872 95.1162 56.9208 94.6476C55.8545 94.179 54.8984 93.4907 54.1147 92.6276C52.648 91.047 51.8779 89.4591 51.8779 87.8859C51.9669 86.4817 52.5101 85.1448 53.4253 84.0779C54.0487 83.2325 54.694 82.3724 55.3467 81.527C54.9576 81.0853 54.5975 80.6187 54.2687 80.1302C53.6073 79.1991 53.2557 78.0827 53.264 76.9397C53.3113 75.3911 53.8223 73.8926 54.7307 72.6391C55.5814 71.5291 56.2561 70.5734 56.7841 69.8383C57.7603 68.2895 59.0016 66.9257 60.4509 65.8097C61.5059 65.1176 62.7396 64.7497 64.0004 64.7511C65.7215 64.7185 67.4016 65.279 68.7599 66.339C69.4601 66.8702 70.0246 67.5603 70.407 68.3526C70.7895 69.1449 70.979 70.0169 70.96 70.8969C70.9167 72.9529 70.0778 74.9115 68.6206 76.359C68.1454 76.8552 67.7043 77.3833 67.3005 77.9395C68.2905 78.6232 69.1853 79.2995 69.9553 79.9464C71.334 81.1374 72.0307 82.4092 72.0307 83.7545C71.9539 84.7984 71.6241 85.8078 71.07 86.695C70.134 88.3366 68.9793 89.8428 67.6379 91.172C65.1738 93.6788 65.0198 93.8038 64.9171 93.8847C63.587 94.8777 61.9621 95.393 60.3043 95.3476ZM57.3708 83.1369C56.7401 83.9603 56.1094 84.791 55.5007 85.607C54.9372 86.2332 54.5811 87.0191 54.4814 87.8565C54.4814 88.7387 54.9874 89.7238 55.9994 90.7971C56.5354 91.4077 57.1956 91.8961 57.9356 92.2296C58.6756 92.5631 59.4782 92.7339 60.2896 92.7305C61.3358 92.7711 62.3663 92.4663 63.223 91.8631C63.311 91.7822 63.6704 91.4367 65.0124 90.0767C64.54 90.3354 64.0107 90.4719 63.4724 90.4736C61.9883 90.4152 60.562 89.8819 59.4022 88.9519C57.7815 87.7463 56.9528 86.3863 56.9528 84.9013C56.9588 84.2875 57.1069 83.6835 57.3855 83.1369H57.3708ZM59.4536 81.255C60.1062 81.255 61.0376 81.5564 63.4577 83.012C65.8778 84.4675 66.9998 85.7687 66.9998 87.1287C66.9987 87.4977 66.9239 87.8626 66.7798 88.2021C67.5189 87.3609 68.1678 86.4443 68.7159 85.4673C69.0514 84.9495 69.2715 84.3653 69.3613 83.7545C69.3046 83.3887 69.1723 83.0388 68.9727 82.7274C68.7732 82.4159 68.5108 82.1498 68.2025 81.946C67.1471 81.0693 66.0402 80.2568 64.8878 79.5127L64.3011 79.1304V78.3953C64.3033 78.2271 64.323 78.0595 64.3597 77.8954C64.1992 78.0741 64.0037 78.2178 63.7855 78.3177C63.5673 78.4176 63.3309 78.4715 63.091 78.4762C62.5117 78.4762 61.815 78.2262 60.1576 76.9471C58.5002 75.6679 57.7008 74.4696 57.7008 73.1758V73.0288L56.8795 74.1535C56.2793 74.9635 55.93 75.9323 55.8748 76.9397C55.8657 77.5432 56.0509 78.1335 56.4028 78.6232C56.843 79.2716 57.3574 79.8662 57.9355 80.3949L58.8522 81.2035L58.6395 81.4829C58.8883 81.3289 59.1759 81.2498 59.4682 81.255H59.4536ZM60.5903 70.4337C61.2685 70.4405 61.938 70.5869 62.5575 70.8638C63.1769 71.1408 63.7329 71.5424 64.1911 72.0437C64.6089 72.415 64.9482 72.8665 65.1888 73.3716C65.4294 73.8767 65.5664 74.4251 65.5918 74.9842C65.5888 75.3616 65.5269 75.7361 65.4084 76.0943C65.7385 75.6606 66.1418 75.1754 66.6625 74.624C67.666 73.6595 68.2552 72.3411 68.3052 70.9483C68.3433 70.4546 68.2564 69.9592 68.0526 69.5081C67.8487 69.057 67.5346 68.6649 67.1392 68.368C66.2378 67.6716 65.1232 67.3104 63.9857 67.3461C63.23 67.3414 62.4899 67.5614 61.859 67.9784C60.8961 68.7288 60.0657 69.6358 59.4022 70.6616C59.7835 70.5046 60.1927 70.4271 60.6049 70.4337H60.5903Z" fill="#C93A27"/>
<path d="M55.6328 66.0082C55.1487 66.8977 54.7014 67.7211 54.2687 68.5371C53.3447 70.3823 52.5966 71.9555 52.0099 73.2567C51.3206 74.7269 50.6899 76.1972 50.1325 77.5499C49.3185 79.52 48.9078 80.4904 48.9078 80.5419C48.4434 81.4829 47.8053 82.6713 46.9938 84.1073C46.2711 85.3762 45.4778 86.6034 44.6177 87.783C43.6967 88.9825 42.6867 90.1104 41.5962 91.1573C40.4373 92.2695 39.1639 93.2552 37.7974 94.0979C37.6935 94.048 37.5972 93.9837 37.5114 93.9067C37.4649 93.8628 37.4289 93.8089 37.4061 93.7491C37.3832 93.6893 37.3741 93.625 37.3794 93.5612C37.3794 93.3627 37.9661 92.5173 39.1395 91.0323C39.7239 90.3344 40.2605 89.5976 40.7455 88.8269C41.2431 88.0154 41.6841 87.1704 42.0656 86.298C42.4836 85.3497 42.9163 84.3646 43.349 83.3575C44.493 81.0124 45.4684 78.8364 46.2824 76.8441C46.7737 75.6165 47.2578 74.2417 47.7491 72.7053C47.7491 72.2152 45.9622 71.9702 42.3882 71.9702C41.8558 71.9767 41.3271 72.0609 40.8189 72.2201C40.2425 72.3961 39.7083 72.6888 39.2495 73.0802H38.1788V72.1907C39.4374 70.2418 41.0642 68.5586 42.9676 67.2359C44.1287 66.5189 45.4688 66.1467 46.8324 66.1626C47.4727 66.1805 48.1116 66.232 48.7465 66.3169C49.4057 66.4045 50.0691 66.456 50.7339 66.4713C51.4013 66.4713 51.9219 66.4199 52.3033 66.3905C53.2212 66.3566 54.111 66.0635 54.8701 65.545H55.5227L55.6328 66.0082ZM70.6813 83.6221C70.5939 84.4552 70.318 85.2572 69.8746 85.9672C68.9974 87.5006 67.9168 88.9077 66.6625 90.1502C65.0491 91.7822 64.1837 92.657 64.0591 92.7526C62.9698 93.5441 61.6489 93.9501 60.3043 93.9067C59.3151 93.9103 58.3365 93.7039 57.4327 93.3009C56.5289 92.898 55.7205 92.3077 55.0607 91.569C53.814 90.2384 53.1833 88.9592 53.1833 87.7316C53.2846 86.6101 53.7334 85.5484 54.4667 84.6954C55.3247 83.5486 56.1974 82.3944 57.0921 81.2476C56.4283 80.6618 55.8373 79.9978 55.3321 79.2701C54.8371 78.5544 54.5804 77.7001 54.5987 76.8294C54.6558 75.5416 55.095 74.3002 55.8601 73.264C56.6815 72.1613 57.3586 71.2277 57.8915 70.4631C58.7697 69.0569 59.8837 67.8134 61.1843 66.7874C62.0236 66.2309 63.0088 65.9367 64.0151 65.942C65.4449 65.9081 66.8429 66.3674 67.9752 67.2432C68.5157 67.6556 68.9497 68.1919 69.2406 68.8072C69.5316 69.4225 69.671 70.0987 69.6473 70.7792C69.6014 72.5034 68.8857 74.1415 67.6525 75.3445C66.3227 76.7755 65.6602 77.7557 65.6651 78.285C66.8613 79.0578 68.0099 79.9023 69.1046 80.8139C69.5566 81.1376 69.9321 81.5569 70.2046 82.0422C70.477 82.5275 70.6398 83.0668 70.6813 83.6221ZM65.7018 87.0038C65.7018 86.1804 64.724 85.1806 62.7684 84.0044C61.0376 82.9605 59.9229 82.4312 59.4389 82.4312C59.2629 82.4312 59.0135 82.7179 58.7055 83.2766C58.4217 83.7173 58.255 84.2234 58.2215 84.7469C58.2215 85.7908 58.8595 86.7881 60.1356 87.7389C61.078 88.5184 62.245 88.9744 63.465 89.0401C64.0187 89.015 64.5425 88.7813 64.9318 88.3858C65.154 88.2268 65.3383 88.0204 65.4715 87.7814C65.6046 87.5424 65.6833 87.2769 65.7018 87.0038ZM64.2864 74.8004C64.2573 74.4121 64.1516 74.0334 63.9754 73.6864C63.7991 73.3393 63.5559 73.0309 63.2597 72.7788C62.9208 72.4084 62.5097 72.1116 62.0518 71.9068C61.5939 71.7019 61.099 71.5934 60.5976 71.5879C60.1778 71.5763 59.77 71.7293 59.4609 72.0143C59.3141 72.1432 59.1973 72.3029 59.1188 72.4819C59.0402 72.661 59.0018 72.8552 59.0062 73.0508C59.0062 73.8938 59.6516 74.8004 60.9423 75.7708C62.057 76.6162 62.7757 77.0426 63.1424 77.0426C63.509 77.0426 63.6264 76.7559 63.8757 76.1972C64.1126 75.7672 64.2528 75.2905 64.2864 74.8004Z" fill="#9B1E1F"/>
<path d="M55.6328 65.2363C55.1487 66.1037 54.7014 66.9492 54.298 67.7652C53.374 69.6104 52.626 71.1762 52.0393 72.4848C51.3499 73.9918 50.7192 75.4253 50.1619 76.778C49.3478 78.7408 48.9372 79.7185 48.9372 79.7626C48.4727 80.7134 47.8347 81.9019 47.0231 83.3281C46.303 84.6128 45.5097 85.8548 44.647 87.0479C43.7261 88.2473 42.7161 89.3753 41.6256 90.4222C40.4523 91.5107 39.1694 92.474 37.7974 93.2966C37.6949 93.2443 37.5989 93.1802 37.5114 93.1054C37.4649 93.0615 37.4289 93.0076 37.4061 92.9478C37.3832 92.888 37.3741 92.8237 37.3794 92.7599C37.3794 92.5541 37.9661 91.716 39.1395 90.231C39.7239 89.5331 40.2605 88.7963 40.7455 88.0256C41.2431 87.2141 41.6841 86.3691 42.0656 85.4967C42.4836 84.5484 42.9163 83.5633 43.349 82.5562C44.493 80.2111 45.4684 78.0351 46.2824 76.0428C46.7737 74.8152 47.2578 73.4404 47.7491 71.904C47.7491 71.4139 45.9622 71.1689 42.3882 71.1689C41.8558 71.1754 41.3271 71.2596 40.8189 71.4188C40.2413 71.5918 39.7065 71.8849 39.2495 72.2789H38.1788V71.4188C39.4353 69.4682 41.0625 67.7846 42.9676 66.464C44.1248 65.7341 45.4652 65.3491 46.8324 65.3539C47.4727 65.3718 48.1116 65.4233 48.7465 65.5083C49.4057 65.5958 50.0691 65.6474 50.7339 65.6627C51.4013 65.6627 51.9219 65.6112 52.3033 65.5818C53.2212 65.5479 54.111 65.2549 54.8701 64.7364H55.5227L55.6328 65.2363ZM70.6813 82.8502C70.5948 83.6812 70.3188 84.481 69.8746 85.188C68.9993 86.7226 67.9185 88.13 66.6625 89.3709C65.0491 91.0078 64.1813 91.8778 64.0591 91.9807C62.9698 92.7722 61.6489 93.1782 60.3043 93.1348C59.3144 93.1385 58.3351 92.9313 57.4312 92.527C56.5272 92.1227 55.7192 91.5306 55.0607 90.7897C53.814 89.4665 53.1833 88.1873 53.1833 86.9597C53.2846 85.8382 53.7334 84.7766 54.4667 83.9235C55.3272 82.7767 56.2023 81.625 57.0921 80.4684C56.4282 79.8853 55.8372 79.2238 55.3321 78.4982C54.8385 77.7818 54.5819 76.928 54.5987 76.0575C54.6558 74.7697 55.095 73.5283 55.8601 72.4921C56.6815 71.3894 57.3586 70.4558 57.8915 69.6912C58.7697 68.285 59.8837 67.0415 61.1843 66.0155C62.0236 65.459 63.0088 65.1648 64.0151 65.1701C65.4449 65.1362 66.8429 65.5955 67.9752 66.4713C68.5152 66.8825 68.9488 67.4176 69.2398 68.0316C69.5307 68.6456 69.6705 69.3206 69.6473 70C69.6033 71.7268 68.8874 73.3678 67.6525 74.5726C66.3227 75.9987 65.6602 76.9789 65.6651 77.5131C66.8599 78.2907 68.0083 79.1376 69.1046 80.0493C69.5557 80.3723 69.9306 80.7904 70.2031 81.2744C70.4755 81.7583 70.6387 82.2962 70.6813 82.8502ZM65.7018 86.2245C65.7018 85.4061 64.724 84.4087 62.7684 83.2325C61.0376 82.1886 59.9229 81.6593 59.4389 81.6593C59.2629 81.6593 59.0135 81.9387 58.7055 82.5047C58.4217 82.9454 58.255 83.4515 58.2215 83.975C58.2215 85.0287 58.8595 86.0285 60.1356 86.9744C61.078 87.7538 62.245 88.2099 63.465 88.2756C64.0177 88.2462 64.5401 88.0132 64.9318 87.6213C65.1551 87.46 65.34 87.251 65.4731 87.0095C65.6063 86.768 65.6844 86.4999 65.7018 86.2245ZM64.2864 74.0212C64.2164 73.2525 63.8476 72.5422 63.2597 72.0437C62.9208 71.6733 62.5097 71.3765 62.0518 71.1716C61.5939 70.9668 61.099 70.8583 60.5976 70.8528C60.3895 70.8454 60.1819 70.8793 59.9869 70.9525C59.7918 71.0256 59.6131 71.1366 59.4609 71.2791C59.3141 71.4081 59.1973 71.5677 59.1188 71.7468C59.0402 71.9259 59.0018 72.1201 59.0062 72.3157C59.0062 73.1537 59.6516 74.0653 60.9423 75.0357C62.057 75.8811 62.7757 76.3001 63.1424 76.3001C63.509 76.3001 63.6264 76.0208 63.8757 75.4621C64.1189 75.0188 64.2592 74.5263 64.2864 74.0212Z" fill="#EDBC64"/>
<path d="M39.3888 71.8158C41.3028 71.235 43.0556 70.1838 45.0137 69.6104C47.1551 69.0002 49.4138 68.8752 51.5626 68.4047C52.3341 68.233 53.1401 68.3102 53.8653 68.6253C54.0047 68.3386 54.144 68.0519 54.298 67.7505C54.7014 66.9345 55.1487 66.089 55.6327 65.2216L55.5227 64.7217H54.87C54.1094 65.237 53.2206 65.5297 52.3033 65.5671C51.9219 65.5671 51.4012 65.6186 50.7339 65.648C50.0691 65.6327 49.4057 65.5811 48.7465 65.4936C48.1116 65.4086 47.4727 65.3571 46.8324 65.3392C45.4652 65.3343 44.1248 65.7193 42.9676 66.4493C41.0625 67.7699 39.4353 69.4535 38.1787 71.4041V72.2054H38.4721C38.7611 72.0394 39.0688 71.9086 39.3888 71.8158ZM38.1347 91.5616C37.8214 91.9143 37.573 92.3201 37.4014 92.7599C37.3961 92.8237 37.4052 92.8879 37.428 92.9478C37.4509 93.0076 37.4869 93.0615 37.5334 93.1054C37.6209 93.1802 37.7169 93.2443 37.8194 93.2966C39.1837 92.4727 40.4592 91.5095 41.6255 90.4222C41.9042 90.1575 42.1829 89.8782 42.4542 89.5915C41.0095 90.2384 39.5574 90.8927 38.1347 91.5616ZM44.559 80.4537C45.1795 80.1458 45.8663 79.9961 46.5583 80.0179C47.2504 80.0397 47.9264 80.2323 48.5265 80.5786C48.6731 80.2919 48.8125 80.0199 48.9371 79.7626C48.9371 79.7626 49.3478 78.7408 50.1619 76.778C50.2352 76.5942 50.3232 76.403 50.3965 76.2193C49.256 76.3734 48.1267 76.6018 47.0157 76.9029C46.5684 77.0353 46.1357 77.1896 45.7104 77.3514C45.2506 78.4426 44.7615 79.5212 44.2436 80.586L44.559 80.4537ZM56.9381 80.7551H56.8721C56.0581 81.8137 55.2514 82.8649 54.4667 83.9235C53.7333 84.7765 53.2846 85.8382 53.1833 86.9597C53.2421 88.0962 53.6784 89.1805 54.4227 90.0399C59.9962 96.318 65.1811 91.6425 59.6662 87.8345C58.6953 87.7945 57.7756 87.3874 57.0921 86.695C55.4274 84.9968 55.7354 82.5709 56.9381 80.7551ZM63.9784 65.1628C62.9721 65.1574 61.9869 65.4517 61.1476 66.0082C59.847 67.0341 58.733 68.2777 57.8548 69.6839C57.4148 70.3161 56.8721 71.0659 56.2341 71.8893C55.4319 72.8713 54.8806 74.0345 54.628 75.2783C54.5879 75.5214 54.5658 75.7671 54.562 76.0134C54.5452 76.8839 54.8018 77.7377 55.2954 78.4541C55.8005 79.1797 56.3915 79.8412 57.0554 80.4243L56.9381 80.5786H56.9968C57.2456 80.2136 57.5175 79.8649 57.8108 79.5347C57.3759 78.994 57.0474 78.3753 56.8428 77.7116C56.3368 75.5062 57.5248 74.0359 59.0429 72.8303C58.9839 72.6447 58.9518 72.4516 58.9475 72.2569C58.9431 72.0613 58.9815 71.8671 59.0601 71.688C59.1386 71.5089 59.2554 71.3493 59.4022 71.2203C59.5544 71.0778 59.7332 70.9668 59.9282 70.8937C60.1233 70.8205 60.3308 70.7866 60.5389 70.7939C60.9115 70.7995 61.2807 70.8666 61.6316 70.9924C63.7144 69.4486 65.6578 67.7725 67.7992 66.3684C66.6926 65.5561 65.3496 65.1323 63.9784 65.1628Z" fill="#FFDC83"/>
</g>
<defs>
<linearGradient id="paint0_linear_6514_28615" x1="10.7509" y1="59.9947" x2="24.0037" y2="54.8997" gradientUnits="userSpaceOnUse">
<stop offset="0.05"/>
<stop offset="0.28" stop-color="#4C4C4C"/>
<stop offset="0.53" stop-color="#989898"/>
<stop offset="0.74" stop-color="#D0D0D0"/>
<stop offset="0.89" stop-color="#F2F2F2"/>
<stop offset="0.97" stop-color="white"/>
</linearGradient>
<linearGradient id="paint1_linear_6514_28615" x1="10.7509" y1="59.9947" x2="24.0037" y2="54.8997" gradientUnits="userSpaceOnUse">
<stop offset="0.05" stop-color="#CCD8D4"/>
<stop offset="0.38" stop-color="#ACA48B"/>
<stop offset="0.66" stop-color="#947D53"/>
<stop offset="0.86" stop-color="#856431"/>
<stop offset="0.97" stop-color="#7F5B24"/>
</linearGradient>
<linearGradient id="paint2_linear_6514_28615" x1="94.0903" y1="57.5835" x2="83.081" y2="55.6738" gradientUnits="userSpaceOnUse">
<stop offset="0.05"/>
<stop offset="0.28" stop-color="#4C4C4C"/>
<stop offset="0.53" stop-color="#989898"/>
<stop offset="0.74" stop-color="#D0D0D0"/>
<stop offset="0.89" stop-color="#F2F2F2"/>
<stop offset="0.97" stop-color="white"/>
</linearGradient>
<linearGradient id="paint3_linear_6514_28615" x1="94.0903" y1="57.5835" x2="83.081" y2="55.6738" gradientUnits="userSpaceOnUse">
<stop offset="0.05" stop-color="#CCD8D4"/>
<stop offset="0.38" stop-color="#ACA48B"/>
<stop offset="0.66" stop-color="#947D53"/>
<stop offset="0.86" stop-color="#856431"/>
<stop offset="0.97" stop-color="#7F5B24"/>
</linearGradient>
<linearGradient id="paint4_linear_6514_28615" x1="58.6762" y1="110.786" x2="62.5646" y2="120.608" gradientUnits="userSpaceOnUse">
<stop stop-color="white"/>
<stop offset="1" stop-color="#C93A27"/>
</linearGradient>
<linearGradient id="paint5_linear_6514_28615" x1="71.7665" y1="105.617" x2="75.6475" y2="115.433" gradientUnits="userSpaceOnUse">
<stop stop-color="white"/>
<stop offset="1" stop-color="#C93A27"/>
</linearGradient>
<clipPath id="clip0_6514_28615">
<rect width="106" height="105" fill="white"/>
</clipPath>
</defs>
</svg>
