<svg width="57" height="25" viewBox="0 0 57 25" fill="none" xmlns="http://www.w3.org/2000/svg">
<g clip-path="url(#clip0_49_5203)">
<mask id="mask0_49_5203" style="mask-type:luminance" maskUnits="userSpaceOnUse" x="0" y="0" width="58" height="25">
<path d="M57.0001 0.154297H0.00012207V24.8457H57.0001V0.154297Z" fill="white"/>
</mask>
<g mask="url(#mask0_49_5203)">
<path d="M7.12513 10.9402C7.12513 11.2155 7.03013 12.0413 6.36513 12.5919C5.60513 13.1424 4.27513 13.326 3.42013 13.326C3.04012 13.326 2.66012 13.326 2.37512 13.2342C1.61512 13.1424 0.760123 12.9589 0.380123 12.3166C0.095122 11.9496 0.00012207 11.4908 0.00012207 11.032H2.37512C2.37512 11.1237 2.37512 11.399 2.56512 11.5825C2.75512 11.6743 3.04012 11.8578 3.42013 11.8578C3.51513 11.8578 3.99013 11.8578 4.27513 11.5825C4.65513 11.3073 4.65513 10.8485 4.65513 10.7567V9.9309C4.56013 10.1144 4.46513 10.2062 4.37013 10.2062C3.99013 10.5732 3.42013 10.665 2.94512 10.665C2.28012 10.665 1.61512 10.4815 1.14012 10.1144C0.665123 9.74738 0.00012207 9.01331 0.00012207 7.54516C0.00012207 7.26991 0.00012207 6.07704 0.855123 5.25121C1.42512 4.70065 2.28012 4.42537 3.04012 4.42537C3.23013 4.42537 3.99013 4.42537 4.56013 4.88417C4.65513 4.97593 4.75013 4.97593 4.84513 5.25121V4.60889H7.12513V10.9402ZM3.99013 6.26056C3.99013 6.26056 3.80013 6.1688 3.51513 6.1688C3.42013 6.1688 3.23013 6.26056 3.13512 6.26056C2.75512 6.44408 2.47012 6.81111 2.47012 7.63692C2.47012 8.18747 2.56512 8.55451 2.75512 8.64627L3.04012 8.92155H3.51513C3.61013 8.92155 3.80013 8.92155 3.99013 8.82979C4.46513 8.64627 4.56013 8.00395 4.56013 7.54516C4.56013 7.08639 4.56013 6.53584 3.99013 6.26056ZM12.0651 10.9402V10.4815C11.9701 10.4815 11.8751 10.5732 11.5901 10.7567C11.3051 10.8485 10.7351 11.032 9.97513 11.032C9.78513 11.032 9.31013 11.032 8.93013 10.9402C8.07513 10.5732 7.60013 9.9309 7.60013 9.01331C7.60013 8.73803 7.69513 7.91219 8.45513 7.36167C9.02513 7.08639 9.69013 6.99463 10.3551 6.90287C10.7351 6.81111 11.1151 6.81111 11.4951 6.71936C11.6851 6.6276 11.7801 6.6276 11.9701 6.6276V6.26056C11.8751 6.07704 11.6851 5.89352 11.1151 5.89352H10.7351C10.3551 5.98528 10.2601 6.35232 10.2601 6.44408L7.79013 6.53584C7.79013 6.35232 7.88513 6.26056 7.88513 6.1688C7.98013 5.89352 8.07513 5.43473 8.64513 5.06769C9.12013 4.70065 9.88013 4.42537 11.3051 4.42537C12.3501 4.42537 13.7751 4.51713 14.2501 5.61824C14.4401 5.89352 14.4401 6.07704 14.4401 6.71936V10.1144C14.4401 10.5732 14.5351 10.665 14.6301 10.9402H12.0651ZM11.0201 8.27923C10.7351 8.37099 10.3551 8.46275 10.0701 8.64627C10.0701 8.73803 9.97513 8.82979 9.97513 8.92155C9.97513 9.19682 10.1651 9.4721 10.6401 9.4721C10.8301 9.4721 11.1151 9.38034 11.3051 9.28858C11.9701 8.92155 11.9701 8.27923 11.9701 8.00395C11.6851 8.09571 11.3051 8.18747 11.0201 8.27923ZM24.1301 10.9402V7.63692C24.1301 7.36167 24.2251 6.53584 23.1801 6.53584C22.9901 6.53584 22.4201 6.53584 22.3251 7.17815C22.2301 7.26991 22.2301 7.36167 22.2301 7.54516V10.9402H19.6651V7.08639C19.4751 6.6276 19.0001 6.53584 18.7151 6.53584C18.6201 6.53584 18.0501 6.6276 17.8601 7.08639C17.8601 7.17815 17.7651 7.26991 17.7651 7.4534V10.9402H15.2001V4.60889H17.6701V5.52648C17.8601 5.25121 17.9551 5.15945 18.0501 5.06769C18.3351 4.79241 18.8101 4.42537 19.7601 4.42537C19.9501 4.42537 21.0901 4.42537 21.6601 5.15945C21.7551 5.25121 21.8501 5.34297 22.0401 5.61824C22.1351 5.34297 22.2301 5.25121 22.3251 5.15945C22.7051 4.88417 23.1801 4.42537 24.2251 4.42537C24.4151 4.42537 24.7001 4.42537 25.1751 4.51713C25.4601 4.60889 26.3151 4.88417 26.6001 5.80176C26.6951 6.1688 26.6951 6.53584 26.6951 6.90287V10.9402H24.1301ZM33.155 10.665C32.68 10.9402 32.205 11.1237 31.6351 11.1237C30.9701 11.1237 30.4951 10.8485 30.3051 10.7567L30.0201 10.4815V10.9402H27.5501V2.31494H30.1151V5.06769L30.4001 4.79241C30.7801 4.51713 31.2551 4.42537 31.73 4.42537C32.585 4.42537 33.25 4.70065 33.82 5.25121C34.2 5.71 34.58 6.35232 34.58 7.63692C34.58 8.00395 34.58 9.83914 33.155 10.665ZM31.73 6.6276C31.5401 6.26056 31.1601 6.26056 31.0651 6.26056C30.9701 6.26056 30.6851 6.26056 30.4951 6.44408C30.1151 6.71936 30.0201 7.26991 30.0201 7.72868C30.0201 8.18747 30.1151 8.73803 30.4951 9.10506C30.4951 9.10506 30.7801 9.28858 31.0651 9.28858C31.1601 9.28858 31.4451 9.19682 31.73 9.01331C31.92 8.73803 32.015 8.37099 32.015 7.72868C32.015 7.36167 32.015 6.90287 31.73 6.6276ZM35.055 2.31494H37.715V10.9402H35.055V2.31494ZM38.475 2.31494H41.04V3.96661H38.475V2.31494ZM38.475 4.60889H41.04V10.9402H38.475V4.60889ZM46.265 10.9402V7.4534C46.265 7.36167 46.265 7.17815 46.17 7.08639C46.17 6.81111 45.9803 6.53584 45.315 6.53584C44.365 6.53584 44.365 7.26991 44.365 7.54516V10.9402H41.8V4.60889H44.27V5.43473C44.46 5.25121 44.46 5.15945 44.5553 5.06769C45.0303 4.60889 45.79 4.42537 46.4553 4.42537C46.645 4.42537 47.5 4.42537 48.07 4.97593C48.45 5.25121 48.64 5.61824 48.735 6.07704C48.8303 6.26056 48.8303 6.44408 48.8303 6.90287V10.9402H46.265ZM56.4303 10.9402C56.4303 11.2155 56.4303 12.0413 55.67 12.5919C54.91 13.1424 53.675 13.326 52.725 13.326C52.44 13.326 52.06 13.326 51.6803 13.2342C51.015 13.1424 50.16 12.9589 49.685 12.3166C49.4 11.9496 49.4 11.4908 49.4 11.032H51.775C51.775 11.1237 51.6803 11.399 51.965 11.5825C52.06 11.6743 52.345 11.8578 52.725 11.8578C52.82 11.8578 53.39 11.8578 53.675 11.5825C54.0553 11.3073 53.96 10.8485 53.96 10.7567V9.9309C53.865 10.1144 53.865 10.2062 53.77 10.2062C53.39 10.5732 52.82 10.665 52.345 10.665C51.585 10.665 51.015 10.4815 50.445 10.1144C49.97 9.74738 49.4 9.01331 49.4 7.54516C49.4 7.26991 49.4 6.07704 50.16 5.25121C50.7303 4.70065 51.6803 4.42537 52.44 4.42537C52.6303 4.42537 53.39 4.42537 53.865 4.88417C54.0553 4.97593 54.0553 4.97593 54.245 5.25121V4.60889H56.525V10.5732C56.4303 10.665 56.4303 10.8485 56.4303 10.9402ZM53.39 6.26056C53.295 6.26056 53.1053 6.1688 52.915 6.1688C52.725 6.1688 52.6303 6.26056 52.44 6.26056C52.06 6.44408 51.87 6.81111 51.87 7.63692C51.87 8.18747 51.965 8.55451 52.1553 8.64627L52.44 8.92155H52.82C52.915 8.92155 53.1053 8.92155 53.39 8.82979C53.865 8.64627 53.96 8.00395 53.96 7.54516C53.96 7.08639 53.865 6.53584 53.39 6.26056ZM13.3001 20.4831C11.8751 20.4831 11.4001 20.0243 11.2101 19.382C11.1151 19.1067 11.1151 18.9232 11.1151 18.6479V15.6199H10.2601V14.2435H11.2101V12.2248H13.7751V14.2435H14.9151V15.6199H13.7751L13.6801 18.0056C13.6801 18.2809 13.7751 18.6479 14.4401 18.6479H14.9151V20.3914C14.7251 20.3914 13.9651 20.4831 13.3001 20.4831ZM25.3651 17.7303C25.3651 17.7303 25.3651 18.0056 25.4601 18.1891C25.5551 18.4644 25.7451 18.9232 26.5051 18.9232C26.8851 18.9232 27.0751 18.7397 27.2651 18.6479C27.4551 18.4644 27.6451 18.1891 27.6451 18.0974L29.8301 18.9232C29.7351 19.015 29.6401 19.1985 29.4501 19.382C29.0701 19.8408 28.5001 20.1161 28.3101 20.2996C27.9301 20.3914 27.2651 20.6666 26.3151 20.6666C25.8401 20.6666 25.2701 20.5749 24.7951 20.3914C23.4651 19.8408 22.7051 18.5562 22.7051 17.1798C22.7051 15.8952 23.3701 15.0694 23.7501 14.7941C24.7001 13.8765 25.9351 13.7848 26.3151 13.7848C26.7901 13.7848 28.1201 13.8765 29.0701 14.8858C29.3551 15.1611 29.6401 15.6199 29.7351 16.0787C29.9251 16.6293 29.9251 17.0881 29.9251 17.7303H25.3651ZM27.2651 15.9869C27.0751 15.5282 26.6001 15.4364 26.4101 15.4364C26.2201 15.4364 26.0301 15.5282 25.9351 15.5282C25.4601 15.7117 25.4601 16.2622 25.3651 16.354H27.2651V15.9869ZM34.675 16.0787C34.39 16.0787 33.345 15.9869 32.965 16.8128V20.3914H30.3051V14.06H32.87V14.6106L33.155 14.3353C33.82 13.9683 34.295 13.9683 35.055 13.9683V16.0787H34.675ZM39.52 20.3914V19.9326C39.425 20.0243 39.33 20.1161 39.045 20.2078C38.76 20.3914 38.19 20.5749 37.335 20.5749C37.24 20.5749 36.765 20.5749 36.29 20.3914C35.435 20.1161 35.055 19.382 35.055 18.5562C35.055 18.1891 35.055 17.4551 35.91 16.9045C36.48 16.5375 37.145 16.4457 37.81 16.354C38.19 16.354 38.57 16.2622 38.95 16.1705C39.045 16.1705 39.235 16.0787 39.425 16.0787C39.425 16.0787 39.425 15.8952 39.33 15.8034C39.33 15.5282 39.14 15.3446 38.57 15.3446H38.19C37.715 15.4364 37.715 15.8034 37.715 15.8952L35.245 15.9869C35.245 15.8952 35.34 15.7117 35.34 15.6199C35.34 15.3446 35.53 14.9776 36.005 14.5188C36.575 14.1518 37.335 13.8765 38.76 13.8765C39.805 13.8765 41.135 14.06 41.7053 15.0694C41.8 15.3446 41.895 15.6199 41.895 16.1705V19.6573C41.895 20.1161 41.895 20.2078 42.085 20.3914H39.52ZM38.38 17.7303C38.095 17.8221 37.715 17.9139 37.525 18.1891C37.525 18.1891 37.43 18.2809 37.43 18.4644C37.43 18.6479 37.62 18.9232 38.095 18.9232C38.285 18.9232 38.475 18.8315 38.665 18.7397C39.425 18.3727 39.425 17.7303 39.425 17.4551C39.045 17.5469 38.76 17.6386 38.38 17.7303ZM46.835 20.5749C46.645 20.5749 45.9803 20.5749 45.41 20.2078C45.315 20.1161 45.315 20.1161 45.125 20.0243V22.6853H42.6553V14.06H45.125V14.6106L45.41 14.3353C45.695 14.1518 46.17 13.9683 46.9303 13.9683C48.925 13.9683 49.7803 15.5282 49.7803 17.2716C49.7803 19.015 48.925 20.5749 46.835 20.5749ZM46.9303 16.0787C46.645 15.8034 46.36 15.7117 46.17 15.7117C46.075 15.7117 45.885 15.8034 45.695 15.8952C45.125 16.1705 45.125 16.8128 45.125 17.2716C45.125 17.8221 45.22 18.4644 45.695 18.6479C45.885 18.8315 46.075 18.8315 46.17 18.8315C46.265 18.8315 46.4553 18.8315 46.645 18.6479C47.12 18.3727 47.215 17.8221 47.215 17.2716C47.215 16.9045 47.12 16.4457 46.9303 16.0787ZM54.625 20.7584C54.435 21.3089 54.15 21.9512 53.675 22.3183C53.2 22.6853 52.6303 22.6853 52.06 22.6853H51.395L50.635 22.5936V20.8502H51.395C51.775 20.8502 51.965 20.7584 51.965 20.5749C51.965 20.4831 51.87 20.2078 51.775 19.9326L49.685 14.06H52.345L53.295 18.1891C53.295 18.1891 54.245 14.1518 54.34 14.06H57L54.625 20.7584ZM22.2301 15.4364C22.1351 14.9776 21.8501 14.6106 21.6601 14.427C21.1851 13.9683 20.5201 13.7848 19.8551 13.7848C18.9051 13.7848 18.3351 14.1518 18.0501 14.427L17.7651 14.7023V11.7661H15.2001V20.3914H17.7651V15.8952H20.0451V20.3914H22.3251V16.2622C22.3251 15.9869 22.2301 15.8034 22.2301 15.4364Z" fill="#7C4198"/>
</g>
</g>
<defs>
<clipPath id="clip0_49_5203">
<rect width="57" height="25" fill="white"/>
</clipPath>
</defs>
</svg>
