<svg width="40" height="40" viewBox="0 0 40 40" fill="none" xmlns="http://www.w3.org/2000/svg">
<g clip-path="url(#clip0_6514_26705)">
<mask id="mask0_6514_26705" style="mask-type:luminance" maskUnits="userSpaceOnUse" x="0" y="0" width="40" height="40">
<path d="M40 0.24707H0V39.7532H40V0.24707Z" fill="white"/>
</mask>
<g mask="url(#mask0_6514_26705)">
<path fill-rule="evenodd" clip-rule="evenodd" d="M20 0.24707C31.0667 0.24707 40 9.07013 40 20.0002C40 30.9302 31.0667 39.7532 20 39.7532C8.93335 39.7532 0 30.9302 0 20.0002C0 9.07013 8.93335 0.24707 20 0.24707ZM20 2.09069C30 2.09069 38.1334 10.1236 38.1334 20.0002C38.1334 29.8767 30 37.9096 20 37.9096C10 37.9096 1.86667 29.8767 1.86667 20.0002C1.86667 10.1236 10 2.09069 20 2.09069ZM20 3.93431C29 3.93431 36.2667 11.1113 36.2667 20.0002C36.2667 28.889 29 36.066 20 36.066C11 36.066 3.73334 28.889 3.73334 20.0002C3.73334 11.1113 11 3.93431 20 3.93431ZM12.3334 26.3211H9.93335V17.3664C9.06665 18.2224 8.06665 18.815 6.86665 19.21V17.0372C7.53335 16.8397 8.2 16.4446 8.93335 15.9178C9.66665 15.3252 10.1333 14.6668 10.4 13.9425H12.3334V26.3211ZM18 19.6709C17.4 19.4076 16.9334 19.0125 16.6667 18.6174C16.3334 18.1566 16.2 17.6298 16.2 17.103C16.2 16.1812 16.5333 15.4569 17.2 14.7985C17.8667 14.2059 18.7333 13.9425 19.9333 13.9425C21.1334 13.9425 22.0667 14.2059 22.7334 14.7985C23.4 15.4569 23.6667 16.1812 23.6667 17.103C23.6667 17.6956 23.5333 18.1566 23.2666 18.6174C22.9333 19.0783 22.5333 19.4076 22 19.6709C22.6667 19.9343 23.2 20.3294 23.5333 20.8561C23.9333 21.3829 24.0667 21.9755 24.0667 22.6998C24.0667 23.8191 23.7334 24.7409 23 25.4652C22.2666 26.1894 21.2667 26.5187 20.0667 26.5187C18.9333 26.5187 18 26.2553 17.2666 25.6627C16.3333 24.9384 15.9333 24.0166 15.9333 22.7656C15.9333 22.1072 16.0667 21.5146 16.4 20.922C16.7333 20.3952 17.2666 19.9343 18 19.6709ZM18.4667 17.3006C18.4667 17.7615 18.6 18.0907 18.8666 18.3541C19.1334 18.6174 19.5333 18.7491 19.9333 18.7491C20.4 18.7491 20.8 18.6174 21.0667 18.3541C21.3334 18.0907 21.4667 17.7615 21.4667 17.3006C21.4667 16.8397 21.3334 16.4446 21.0667 16.1812C20.8 15.9178 20.4 15.7862 20 15.7862C19.5333 15.7862 19.1334 15.9178 18.8666 16.1812C18.6 16.4446 18.4667 16.8397 18.4667 17.3006ZM18.2666 22.5681C18.2666 23.2265 18.4 23.7532 18.7334 24.0825C19.1334 24.4775 19.5333 24.6751 20 24.6751C20.5333 24.6751 20.9333 24.4775 21.2666 24.0825C21.5333 23.7532 21.7334 23.2265 21.7334 22.5681C21.7334 21.9755 21.5333 21.5146 21.2666 21.1853C20.9333 20.8561 20.4667 20.6586 20 20.6586C19.4 20.6586 19 20.8561 18.6667 21.2512C18.4 21.6462 18.2666 22.1072 18.2666 22.5681ZM28.8666 24.5434V21.317H25.6V19.1442H28.8666V15.9178H31.0667V19.1442H34.3334V21.317H31.0667V24.5434H28.8666Z" fill="#FFF5D5"/>
</g>
</g>
<defs>
<clipPath id="clip0_6514_26705">
<rect width="40" height="40" fill="white"/>
</clipPath>
</defs>
</svg>
