<svg width="58" height="25" viewBox="0 0 58 25" fill="none" xmlns="http://www.w3.org/2000/svg">
<g clip-path="url(#clip0_49_6000)">
<mask id="mask0_49_6000" style="mask-type:luminance" maskUnits="userSpaceOnUse" x="0" y="0" width="59" height="25">
<path d="M58.0001 0.154297H0.00012207V24.8457H58.0001V0.154297Z" fill="white"/>
</mask>
<g mask="url(#mask0_49_6000)">
<path d="M3.09346 3.85791H54.9066C55.7766 3.85791 56.55 4.22566 57.13 4.68535C57.6133 5.23695 58 5.97245 58 6.79985V18.1999C58 19.0273 57.6133 19.7628 57.13 20.3144C56.55 20.8661 55.7766 21.1419 54.9066 21.1419H3.09346C2.22346 21.1419 1.45012 20.8661 0.870123 20.3144C0.386789 19.7628 0.00012207 19.0273 0.00012207 18.1999V6.79985C0.00012207 5.97245 0.386789 5.23695 0.870123 4.68535C1.45012 4.22566 2.22346 3.85791 3.09346 3.85791ZM54.9066 4.5934H3.09346C2.41679 4.5934 1.83679 4.86921 1.45012 5.23695C1.06346 5.6047 0.773456 6.15631 0.773456 6.79985V18.1999C0.773456 18.8435 1.06346 19.3951 1.45012 19.7628C1.83679 20.2225 2.41679 20.4064 3.09346 20.4064H54.9066C55.5833 20.4064 56.1633 20.2225 56.55 19.7628C56.937 19.3951 57.2266 18.8435 57.2266 18.1999V6.79985C57.2266 6.15631 56.937 5.6047 56.55 5.23695C56.1633 4.86921 55.5833 4.5934 54.9066 4.5934ZM21.0735 10.4773H21.6535V8.82245H22.1368C22.6201 8.82245 22.8135 9.09825 22.9101 9.55794C23.0068 10.1095 23.1035 10.3853 23.2001 10.4773H23.7801C23.6835 10.3853 23.5868 10.0176 23.3935 9.466C23.2968 9.09825 23.2001 8.82245 22.8135 8.63859C23.2968 8.54664 23.5868 8.1789 23.5868 7.62729C23.5868 7.35146 23.4901 7.07566 23.2968 6.8918C23.0068 6.70791 22.7168 6.616 22.1368 6.616C21.7501 6.616 21.3635 6.616 21.0735 6.70791V10.4773ZM21.6535 7.07566C21.7501 6.98374 21.8468 6.98374 22.1368 6.98374C22.7168 6.98374 23.1035 7.25955 23.1035 7.71921C23.1035 8.1789 22.7168 8.4547 22.1368 8.4547H21.6535V7.07566ZM26.4868 8.27084H24.8435V7.07566H26.5835V6.616H24.3601V10.4773H26.6801V10.1095H24.8435V8.7305H26.4868V8.27084ZM27.0668 10.2934C27.3568 10.4773 27.7435 10.5692 28.1301 10.5692C29.0968 10.5692 29.5801 10.0176 29.5801 9.466C29.5801 8.91439 29.1935 8.54664 28.5168 8.36276C27.9368 8.08695 27.7435 7.9031 27.7435 7.53535C27.7435 7.35146 27.9368 6.98374 28.5168 6.98374C28.9035 6.98374 29.0968 7.07566 29.2901 7.1676L29.3868 6.79985C29.1935 6.70791 28.9035 6.616 28.5168 6.616C27.7435 6.616 27.1635 7.07566 27.1635 7.62729C27.1635 8.1789 27.6468 8.54664 28.2268 8.7305C28.8068 8.91439 29.0001 9.09825 29.0001 9.466C29.0001 9.92569 28.7101 10.2015 28.2268 10.2015C27.8401 10.2015 27.4535 10.0176 27.2601 9.92569L27.0668 10.2934ZM30.2568 10.4773H30.8368V9.00634H31.2235C31.7068 9.00634 32.1901 8.82245 32.48 8.54664C32.6733 8.36276 32.77 8.08695 32.77 7.71921C32.77 7.4434 32.6733 7.1676 32.48 6.98374C32.1901 6.70791 31.8035 6.616 31.3201 6.616C30.8368 6.616 30.5468 6.616 30.2568 6.70791V10.4773ZM30.8368 7.07566C30.9335 7.07566 31.1268 6.98374 31.3201 6.98374C31.9001 6.98374 32.2866 7.25955 32.2866 7.81115C32.2866 8.27084 31.9001 8.63859 31.2235 8.63859C31.0301 8.63859 30.9335 8.54664 30.8368 8.54664V7.07566ZM35.1866 6.616C34.0266 6.616 33.2533 7.35146 33.2533 8.63859C33.2533 9.83374 34.0266 10.5692 35.09 10.5692C36.1533 10.5692 37.0233 9.83374 37.0233 8.54664C37.0233 7.35146 36.25 6.616 35.1866 6.616ZM35.09 6.98374C35.96 6.98374 36.4433 7.81115 36.4433 8.54664C36.4433 9.466 35.96 10.2015 35.09 10.2015C34.3166 10.2015 33.8333 9.466 33.8333 8.63859C33.8333 7.71921 34.22 6.98374 35.09 6.98374ZM38.1833 10.4773V8.82245C38.1833 8.1789 38.1833 7.71921 38.0866 7.25955C38.3766 7.71921 38.57 8.08695 38.86 8.54664L40.2133 10.4773H40.6966V6.616H40.2133V8.27084C40.2133 8.91439 40.2133 9.37405 40.31 9.83374C40.1166 9.466 39.8266 9.09825 39.5366 8.63859L38.28 6.616H37.7V10.4773H38.1833ZM41.4703 10.2934C41.6633 10.4773 42.05 10.5692 42.437 10.5692C43.4036 10.5692 43.887 10.0176 43.887 9.466C43.887 8.91439 43.5 8.54664 42.8233 8.36276C42.2433 8.08695 42.05 7.9031 42.05 7.53535C42.05 7.35146 42.2433 6.98374 42.8233 6.98374C43.21 6.98374 43.4036 7.07566 43.5966 7.1676L43.6933 6.79985C43.5 6.70791 43.21 6.616 42.8233 6.616C42.05 6.616 41.4703 7.07566 41.4703 7.62729C41.4703 8.1789 41.9536 8.54664 42.63 8.7305C43.1133 8.91439 43.3066 9.09825 43.3066 9.466C43.3066 9.92569 43.0166 10.2015 42.5333 10.2015C42.1466 10.2015 41.76 10.0176 41.5666 9.92569L41.4703 10.2934ZM44.5633 6.616V10.4773H45.1433V6.616H44.5633ZM46.0133 10.4773C46.2066 10.5692 46.4966 10.5692 46.8833 10.5692C47.56 10.5692 47.9466 10.4773 48.237 10.2015C48.43 10.0176 48.6233 9.7418 48.6233 9.37405C48.6233 8.82245 48.14 8.54664 47.7536 8.4547C48.237 8.27084 48.43 7.99504 48.43 7.62729C48.43 7.25955 48.3333 7.07566 48.14 6.8918C47.85 6.70791 47.56 6.616 46.98 6.616C46.5933 6.616 46.3036 6.616 46.0133 6.70791V10.4773ZM46.5933 7.07566C46.69 6.98374 46.787 6.98374 47.0766 6.98374C47.56 6.98374 47.9466 7.1676 47.9466 7.62729C47.9466 7.99504 47.56 8.27084 47.0766 8.27084H46.5933V7.07566ZM46.5933 8.63859H46.98C47.56 8.63859 48.0433 8.91439 48.0433 9.37405C48.0433 9.92569 47.56 10.2015 46.98 10.2015C46.787 10.2015 46.69 10.1095 46.5933 10.1095V8.63859ZM49.3 10.4773H51.6203V10.1095H49.88V6.616H49.3V10.4773ZM54.23 8.27084H52.6833V7.07566H54.3266V6.616H52.2V10.4773H54.4233V10.1095H52.6833V8.7305H54.23V8.27084ZM25.8101 14.5225H23.4901V15.7176H24.4568V17.0967C24.3601 17.1886 24.0701 17.1886 23.7801 17.1886C22.6201 17.1886 21.8468 16.3612 21.8468 15.0741C21.8468 13.6031 22.7168 12.8676 23.8768 12.8676C24.5535 12.8676 24.9401 13.0515 25.3268 13.2354L25.6168 12.0402C25.3268 11.8563 24.6501 11.6724 23.8768 11.6724C21.8468 11.6724 20.3968 12.9596 20.3968 15.0741C20.3968 16.0854 20.6868 16.9128 21.2668 17.5564C21.8468 18.108 22.6201 18.3838 23.7801 18.3838C24.5535 18.3838 25.4235 18.1999 25.8101 18.016V14.5225ZM30.0635 16.637L30.5468 18.2919H31.9968L30.1601 11.7644H28.3235L26.4868 18.2919H27.8401L28.3235 16.637H30.0635ZM28.5168 15.5338L28.9035 14.1547C29.0001 13.787 29.0968 13.2354 29.1935 12.8676C29.2901 13.2354 29.3868 13.695 29.4835 14.1547L29.8701 15.5338H28.5168ZM38.0866 18.2919H39.44L39.15 11.7644H37.3133L36.6366 13.9709C36.4433 14.7063 36.25 15.5338 36.0566 16.2693C35.96 15.5338 35.7666 14.7063 35.5733 13.9709L34.9933 11.7644H33.06L32.6733 18.2919H34.0266L34.1233 15.8096C34.1233 14.9822 34.22 13.9709 34.22 13.1434C34.4133 13.9709 34.6066 14.8902 34.8 15.7176L35.4766 18.1999H36.54L37.3133 15.6257C37.5066 14.8902 37.7966 13.9709 37.99 13.1434V15.8096L38.0866 18.2919ZM40.5033 11.7644V18.2919H41.9536V11.7644H40.5033ZM44.3703 18.2919V13.5112C44.66 14.2467 45.0466 15.0741 45.4333 15.8096L46.787 18.2919H48.237V11.7644H46.98V13.695C46.98 14.6144 46.98 15.5338 47.0766 16.4531C46.787 15.7176 46.4 14.8902 46.0133 14.1547L44.7566 11.7644H43.1133V18.2919H44.3703ZM54.5203 14.5225H52.2966V15.7176H53.1666V17.0967C53.0703 17.1886 52.8766 17.1886 52.49 17.1886C51.4266 17.1886 50.5566 16.3612 50.5566 15.0741C50.5566 13.6031 51.4266 12.8676 52.587 12.8676C53.2633 12.8676 53.7466 13.0515 54.037 13.2354L54.3266 12.0402C54.037 11.8563 53.4566 11.6724 52.6833 11.6724C50.6536 11.6724 49.1066 12.9596 49.1066 15.0741C49.1066 16.0854 49.3966 16.9128 49.9766 17.5564C50.5566 18.108 51.33 18.3838 52.49 18.3838C53.2633 18.3838 54.1333 18.1999 54.5203 18.016V14.5225ZM10.4401 18.1999H8.02346V13.695H7.34679C6.38013 13.787 5.89679 14.1547 5.60679 15.5338C5.31679 16.9128 5.02679 17.9241 4.83346 18.1999H2.41679C2.61012 17.7402 2.99679 16.2693 3.28679 14.9822C3.57679 13.9709 3.96346 13.1434 4.73679 12.8676V12.7757C3.77013 12.4999 2.80346 11.4886 2.80346 10.0176C2.80346 8.91439 3.19012 8.1789 3.77013 7.62729C4.54346 6.98374 5.70346 6.70791 7.25013 6.70791C8.50679 6.70791 9.66679 6.79985 10.4401 6.98374V7.99504C11.5035 7.1676 12.8568 6.70791 14.5001 6.70791C15.8535 6.70791 16.9168 6.98374 17.4001 7.25955L16.9168 9.28214C16.3368 9.00634 15.6601 8.82245 14.4035 8.82245C12.4701 8.82245 10.9235 10.0176 10.9235 12.4999C10.9235 14.8902 12.2768 16.2693 14.3068 16.2693C14.7901 16.2693 15.2735 16.1773 15.4668 16.0854V13.695H13.8235V11.6724H17.7868V17.6483C17.0135 17.9241 15.6601 18.2919 14.2101 18.2919C12.5668 18.2919 11.4068 17.9241 10.4401 17.2806V18.1999ZM8.02346 8.7305C7.92679 8.7305 7.54013 8.63859 6.96013 8.63859C5.89679 8.63859 5.22013 9.19019 5.22013 10.2015C5.22013 11.2128 5.89679 11.8563 7.15346 11.8563H8.02346V8.7305Z" fill="black"/>
</g>
</g>
<defs>
<clipPath id="clip0_49_6000">
<rect width="58" height="25" fill="white"/>
</clipPath>
</defs>
</svg>
