<svg width="89" height="40" viewBox="0 0 89 40" fill="none" xmlns="http://www.w3.org/2000/svg">
<path d="M4.74667 6.17285H84.2533C85.5883 6.17285 86.775 6.76125 87.665 7.49675C88.4067 8.37932 89 9.55611 89 10.88V29.1201C89 30.4439 88.4067 31.6207 87.665 32.5033C86.775 33.3859 85.5883 33.8272 84.2533 33.8272H4.74667C3.41167 33.8272 2.225 33.3859 1.335 32.5033C0.593333 31.6207 0 30.4439 0 29.1201V10.88C0 9.55611 0.593333 8.37932 1.335 7.49675C2.225 6.76125 3.41167 6.17285 4.74667 6.17285ZM84.2533 7.34964H4.74667C3.70833 7.34964 2.81833 7.79093 2.225 8.37932C1.63167 8.96772 1.18667 9.85028 1.18667 10.88V29.1201C1.18667 30.1497 1.63167 31.0323 2.225 31.6207C2.81833 32.3562 3.70833 32.6504 4.74667 32.6504H84.2533C85.2917 32.6504 86.1817 32.3562 86.775 31.6207C87.3683 31.0323 87.8133 30.1497 87.8133 29.1201V10.88C87.8133 9.85028 87.3683 8.96772 86.775 8.37932C86.1817 7.79093 85.2917 7.34964 84.2533 7.34964ZM32.3367 16.7639H33.2267V14.1161H33.9683C34.71 14.1161 35.0067 14.5574 35.155 15.2929C35.3033 16.1755 35.4517 16.6168 35.6 16.7639H36.49C36.3417 16.6168 36.1933 16.0284 35.8967 15.1458C35.7483 14.5574 35.6 14.1161 35.0067 13.8219C35.7483 13.6748 36.1933 13.0864 36.1933 12.2039C36.1933 11.7625 36.045 11.3212 35.7483 11.0271C35.3033 10.7329 34.8583 10.5858 33.9683 10.5858C33.375 10.5858 32.7817 10.5858 32.3367 10.7329V16.7639ZM33.2267 11.3212C33.375 11.1742 33.5233 11.1742 33.9683 11.1742C34.8583 11.1742 35.4517 11.6155 35.4517 12.3509C35.4517 13.0864 34.8583 13.5277 33.9683 13.5277H33.2267V11.3212ZM40.6433 13.2335H38.1217V11.3212H40.7917V10.5858H37.38V16.7639H40.94V16.1755H38.1217V13.969H40.6433V13.2335ZM41.5333 16.4697C41.9783 16.7639 42.5717 16.911 43.165 16.911C44.6483 16.911 45.39 16.0284 45.39 15.1458C45.39 14.2632 44.7967 13.6748 43.7583 13.3806C42.8683 12.9393 42.5717 12.6451 42.5717 12.0568C42.5717 11.7625 42.8683 11.1742 43.7583 11.1742C44.3517 11.1742 44.6483 11.3212 44.945 11.4684L45.0933 10.88C44.7967 10.7329 44.3517 10.5858 43.7583 10.5858C42.5717 10.5858 41.6817 11.3212 41.6817 12.2039C41.6817 13.0864 42.4233 13.6748 43.3133 13.969C44.2033 14.2632 44.5 14.5574 44.5 15.1458C44.5 15.8813 44.055 16.3226 43.3133 16.3226C42.72 16.3226 42.1267 16.0284 41.83 15.8813L41.5333 16.4697ZM46.4283 16.7639H47.3183V14.4103H47.9117C48.6533 14.4103 49.395 14.1161 49.84 13.6748C50.1367 13.3806 50.285 12.9393 50.285 12.3509C50.285 11.9096 50.1367 11.4684 49.84 11.1742C49.395 10.7329 48.8017 10.5858 48.06 10.5858C47.3183 10.5858 46.8733 10.5858 46.4283 10.7329V16.7639ZM47.3183 11.3212C47.4667 11.3212 47.7633 11.1742 48.06 11.1742C48.95 11.1742 49.5433 11.6155 49.5433 12.498C49.5433 13.2335 48.95 13.8219 47.9117 13.8219C47.615 13.8219 47.4667 13.6748 47.3183 13.6748V11.3212ZM53.9933 10.5858C52.2133 10.5858 51.0267 11.7625 51.0267 13.8219C51.0267 15.7342 52.2133 16.911 53.845 16.911C55.4767 16.911 56.8117 15.7342 56.8117 13.6748C56.8117 11.7625 55.625 10.5858 53.9933 10.5858ZM53.845 11.1742C55.18 11.1742 55.9217 12.498 55.9217 13.6748C55.9217 15.1458 55.18 16.3226 53.845 16.3226C52.6583 16.3226 51.9167 15.1458 51.9167 13.8219C51.9167 12.3509 52.51 11.1742 53.845 11.1742ZM58.5917 16.7639V14.1161C58.5917 13.0864 58.5917 12.3509 58.4433 11.6155C58.8883 12.3509 59.185 12.9393 59.63 13.6748L61.7067 16.7639H62.4483V10.5858H61.7067V13.2335C61.7067 14.2632 61.7067 14.9987 61.855 15.7342C61.5583 15.1458 61.1133 14.5574 60.6683 13.8219L58.74 10.5858H57.85V16.7639H58.5917ZM63.635 16.4697C63.9317 16.7639 64.525 16.911 65.1183 16.911C66.6017 16.911 67.3433 16.0284 67.3433 15.1458C67.3433 14.2632 66.75 13.6748 65.7117 13.3806C64.8217 12.9393 64.525 12.6451 64.525 12.0568C64.525 11.7625 64.8217 11.1742 65.7117 11.1742C66.305 11.1742 66.6017 11.3212 66.8983 11.4684L67.0467 10.88C66.75 10.7329 66.305 10.5858 65.7117 10.5858C64.525 10.5858 63.635 11.3212 63.635 12.2039C63.635 13.0864 64.3767 13.6748 65.415 13.969C66.1567 14.2632 66.4533 14.5574 66.4533 15.1458C66.4533 15.8813 66.0083 16.3226 65.2667 16.3226C64.6733 16.3226 64.08 16.0284 63.7833 15.8813L63.635 16.4697ZM68.3817 10.5858V16.7639H69.2717V10.5858H68.3817ZM70.6067 16.7639C70.9033 16.911 71.3483 16.911 71.9417 16.911C72.98 16.911 73.5733 16.7639 74.0183 16.3226C74.315 16.0284 74.6117 15.5871 74.6117 14.9987C74.6117 14.1161 73.87 13.6748 73.2767 13.5277C74.0183 13.2335 74.315 12.7923 74.315 12.2039C74.315 11.6155 74.1667 11.3212 73.87 11.0271C73.425 10.7329 72.98 10.5858 72.09 10.5858C71.4967 10.5858 71.0517 10.5858 70.6067 10.7329V16.7639ZM71.4967 11.3212C71.645 11.1742 71.7933 11.1742 72.2383 11.1742C72.98 11.1742 73.5733 11.4684 73.5733 12.2039C73.5733 12.7923 72.98 13.2335 72.2383 13.2335H71.4967V11.3212ZM71.4967 13.8219H72.09C72.98 13.8219 73.7217 14.2632 73.7217 14.9987C73.7217 15.8813 72.98 16.3226 72.09 16.3226C71.7933 16.3226 71.645 16.1755 71.4967 16.1755V13.8219ZM75.65 16.7639H79.21V16.1755H76.54V10.5858H75.65V16.7639ZM83.215 13.2335H80.8417V11.3212H83.3633V10.5858H80.1V16.7639H83.5117V16.1755H80.8417V13.969H83.215V13.2335ZM39.605 23.2362H36.045V25.1484H37.5283V27.3549C37.38 27.502 36.935 27.502 36.49 27.502C34.71 27.502 33.5233 26.1781 33.5233 24.1187C33.5233 21.7652 34.8583 20.5884 36.6383 20.5884C37.6767 20.5884 38.27 20.8826 38.8633 21.1768L39.3083 19.2645C38.8633 18.9703 37.825 18.6761 36.6383 18.6761C33.5233 18.6761 31.2983 20.7355 31.2983 24.1187C31.2983 25.7368 31.7433 27.0607 32.6333 28.0904C33.5233 28.9729 34.71 29.4142 36.49 29.4142C37.6767 29.4142 39.0117 29.1201 39.605 28.8258V23.2362ZM46.1317 26.6194L46.8733 29.2672H49.0983L46.28 18.8232H43.4617L40.6433 29.2672H42.72L43.4617 26.6194H46.1317ZM43.7583 24.8542L44.3517 22.6478C44.5 22.0594 44.6483 21.1768 44.7967 20.5884C44.945 21.1768 45.0933 21.9123 45.2417 22.6478L45.835 24.8542H43.7583ZM58.4433 29.2672H60.52L60.075 18.8232H57.2567L56.2183 22.3536C55.9217 23.5303 55.625 24.8542 55.3283 26.031C55.18 24.8542 54.8833 23.5303 54.5867 22.3536L53.6967 18.8232H50.73L50.1367 29.2672H52.2133L52.3617 25.2955C52.3617 23.9717 52.51 22.3536 52.51 21.0297C52.8067 22.3536 53.1033 23.8246 53.4 25.1484L54.4383 29.1201H56.07L57.2567 25.0013C57.5533 23.8246 57.9983 22.3536 58.295 21.0297V25.2955L58.4433 29.2672ZM62.1517 18.8232V29.2672H64.3767V18.8232H62.1517ZM68.085 29.2672V21.6181C68.53 22.7949 69.1233 24.1187 69.7167 25.2955L71.7933 29.2672H74.0183V18.8232H72.09V21.9123C72.09 23.3833 72.09 24.8542 72.2383 26.3252C71.7933 25.1484 71.2 23.8246 70.6067 22.6478L68.6783 18.8232H66.1567V29.2672H68.085ZM83.66 23.2362H80.2483V25.1484H81.5833V27.3549C81.435 27.502 81.1383 27.502 80.545 27.502C78.9133 27.502 77.5783 26.1781 77.5783 24.1187C77.5783 21.7652 78.9133 20.5884 80.6933 20.5884C81.7317 20.5884 82.4733 20.8826 82.9183 21.1768L83.3633 19.2645C82.9183 18.9703 82.0283 18.6761 80.8417 18.6761C77.7267 18.6761 75.3533 20.7355 75.3533 24.1187C75.3533 25.7368 75.7983 27.0607 76.6883 28.0904C77.5783 28.9729 78.765 29.4142 80.545 29.4142C81.7317 29.4142 83.0667 29.1201 83.66 28.8258V23.2362ZM16.02 29.1201H12.3117V21.9123H11.2733C9.79 22.0594 9.04833 22.6478 8.60333 24.8542C8.15833 27.0607 7.71333 28.6788 7.41667 29.1201H3.70833C4.005 28.3846 4.59833 26.031 5.04333 23.9717C5.48833 22.3536 6.08167 21.0297 7.26833 20.5884V20.4413C5.785 20 4.30167 18.3819 4.30167 16.0284C4.30167 14.2632 4.895 13.0864 5.785 12.2039C6.97167 11.1742 8.75167 10.7329 11.125 10.7329C13.0533 10.7329 14.8333 10.88 16.02 11.1742V12.7923C17.6517 11.4684 19.7283 10.7329 22.25 10.7329C24.3267 10.7329 25.9583 11.1742 26.7 11.6155L25.9583 14.8516C25.0683 14.4103 24.03 14.1161 22.1017 14.1161C19.135 14.1161 16.7617 16.0284 16.7617 20C16.7617 23.8246 18.8383 26.031 21.9533 26.031C22.695 26.031 23.4367 25.8839 23.7333 25.7368V21.9123H21.2117V18.6761H27.2933V28.2375C26.1067 28.6788 24.03 29.2672 21.805 29.2672C19.2833 29.2672 17.5033 28.6788 16.02 27.6491V29.1201ZM12.3117 13.969C12.1633 13.969 11.57 13.8219 10.68 13.8219C9.04833 13.8219 8.01 14.7045 8.01 16.3226C8.01 17.9407 9.04833 18.9703 10.9767 18.9703H12.3117V13.969Z" fill="#FFF5D5"/>
</svg>
