<svg width="89" height="40" viewBox="0 0 89 40" fill="none" xmlns="http://www.w3.org/2000/svg">
<path d="M11.125 17.5041C11.125 17.9445 10.9767 19.2658 9.93833 20.1467C8.75167 21.0276 6.675 21.3212 5.34 21.3212C4.74667 21.3212 4.15333 21.3212 3.70833 21.1744C2.52167 21.0276 1.18667 20.734 0.593333 19.7063C0.148333 19.119 0 18.3849 0 17.6509H3.70833C3.70833 17.7977 3.70833 18.2381 4.005 18.5318C4.30167 18.6786 4.74667 18.9722 5.34 18.9722C5.48833 18.9722 6.23 18.9722 6.675 18.5318C7.26833 18.0913 7.26833 17.3572 7.26833 17.2105V15.8891C7.12 16.1828 6.97167 16.3296 6.82333 16.3296C6.23 16.9168 5.34 17.0637 4.59833 17.0637C3.56 17.0637 2.52167 16.77 1.78 16.1828C1.03833 15.5955 0 14.421 0 12.072C0 11.6316 0 9.72297 1.335 8.40164C2.225 7.52075 3.56 7.0803 4.74667 7.0803C5.04333 7.0803 6.23 7.0803 7.12 7.81438C7.26833 7.96119 7.41667 7.96119 7.565 8.40164V7.37393H11.125V17.5041ZM6.23 10.0166C6.23 10.0166 5.93333 9.86979 5.48833 9.86979C5.34 9.86979 5.04333 10.0166 4.895 10.0166C4.30167 10.3102 3.85667 10.8975 3.85667 12.2188C3.85667 13.0997 4.005 13.6869 4.30167 13.8337L4.74667 14.2742H5.48833C5.63667 14.2742 5.93333 14.2742 6.23 14.1274C6.97167 13.8337 7.12 12.806 7.12 12.072C7.12 11.3379 7.12 10.457 6.23 10.0166ZM18.8383 17.5041V16.77C18.69 16.77 18.5417 16.9168 18.0967 17.2105C17.6517 17.3572 16.7617 17.6509 15.575 17.6509C15.2783 17.6509 14.5367 17.6509 13.9433 17.5041C12.6083 16.9168 11.8667 15.8891 11.8667 14.421C11.8667 13.9806 12.015 12.6592 13.2017 11.7784C14.0917 11.3379 15.13 11.1911 16.1683 11.0443C16.7617 10.8975 17.355 10.8975 17.9483 10.7507C18.245 10.6039 18.3933 10.6039 18.69 10.6039V10.0166C18.5417 9.72297 18.245 9.42934 17.355 9.42934H16.7617C16.1683 9.57616 16.02 10.1634 16.02 10.3102L12.1633 10.457C12.1633 10.1634 12.3117 10.0166 12.3117 9.86979C12.46 9.42934 12.6083 8.69527 13.4983 8.10801C14.24 7.52075 15.4267 7.0803 17.6517 7.0803C19.2833 7.0803 21.5083 7.22712 22.25 8.9889C22.5467 9.42934 22.5467 9.72297 22.5467 10.7507V16.1828C22.5467 16.9169 22.695 17.0637 22.8433 17.5041H18.8383ZM17.2067 13.2465C16.7617 13.3933 16.1683 13.5401 15.7233 13.8337C15.7233 13.9806 15.575 14.1274 15.575 14.2742C15.575 14.7146 15.8717 15.1551 16.6133 15.1551C16.91 15.1551 17.355 15.0083 17.6517 14.8614C18.69 14.2742 18.69 13.2465 18.69 12.806C18.245 12.9528 17.6517 13.0997 17.2067 13.2465ZM37.6767 17.5041V12.2188C37.6767 11.7784 37.825 10.457 36.1933 10.457C35.8967 10.457 35.0067 10.457 34.8583 11.4847C34.71 11.6316 34.71 11.7784 34.71 12.072V17.5041H30.705V11.3379C30.4083 10.6039 29.6667 10.457 29.2217 10.457C29.0733 10.457 28.1833 10.6039 27.8867 11.3379C27.8867 11.4847 27.7383 11.6316 27.7383 11.9251V17.5041H23.7333V7.37393H27.59V8.84208C27.8867 8.40164 28.035 8.25482 28.1833 8.10801C28.6283 7.66756 29.37 7.0803 30.8533 7.0803C31.15 7.0803 32.93 7.0803 33.82 8.25482C33.9683 8.40164 34.1167 8.54845 34.4133 8.9889C34.5617 8.54845 34.71 8.40164 34.8583 8.25482C35.4517 7.81438 36.1933 7.0803 37.825 7.0803C38.1217 7.0803 38.5667 7.08031 39.3083 7.22712C39.7533 7.37393 41.0883 7.81438 41.5333 9.28253C41.6817 9.86979 41.6817 10.457 41.6817 11.0443V17.5041H37.6767ZM51.7683 17.0637C51.0267 17.5041 50.285 17.7977 49.395 17.7977C48.3567 17.7977 47.615 17.3572 47.3183 17.2105L46.8733 16.77V17.5041H43.0167V3.70361H47.0217V8.10801L47.4667 7.66756C48.06 7.22712 48.8017 7.0803 49.5433 7.0803C50.8783 7.0803 51.9167 7.52075 52.8067 8.40164C53.4 9.13571 53.9933 10.1634 53.9933 12.2188C53.9933 12.806 53.9933 15.7423 51.7683 17.0637ZM49.5433 10.6039C49.2467 10.0166 48.6533 10.0166 48.505 10.0166C48.3567 10.0166 47.9117 10.0166 47.615 10.3102C47.0217 10.7507 46.8733 11.6316 46.8733 12.3656C46.8733 13.0997 47.0217 13.9806 47.615 14.5678C47.615 14.5678 48.06 14.8614 48.505 14.8614C48.6533 14.8614 49.0983 14.7146 49.5433 14.421C49.84 13.9806 49.9883 13.3933 49.9883 12.3656C49.9883 11.7784 49.9883 11.0443 49.5433 10.6039ZM54.735 3.70361H58.8883V17.5041H54.735V3.70361ZM60.075 3.70361H64.08V6.34628H60.075V3.70361ZM60.075 7.37393H64.08V17.5041H60.075V7.37393ZM72.2383 17.5041V11.9251C72.2383 11.7784 72.2383 11.4847 72.09 11.3379C72.09 10.8975 71.7933 10.457 70.755 10.457C69.2717 10.457 69.2717 11.6316 69.2717 12.072V17.5041H65.2667V7.37393H69.1233V8.69527C69.42 8.40164 69.42 8.25482 69.5683 8.10801C70.31 7.37393 71.4967 7.0803 72.535 7.0803C72.8317 7.0803 74.1667 7.0803 75.0567 7.96119C75.65 8.40164 75.9467 8.9889 76.095 9.72297C76.2433 10.0166 76.2433 10.3102 76.2433 11.0443V17.5041H72.2383ZM88.11 17.5041C88.11 17.9445 88.11 19.2658 86.9233 20.1467C85.7367 21.0276 83.8083 21.3212 82.325 21.3212C81.88 21.3212 81.2867 21.3212 80.6933 21.1744C79.655 21.0276 78.32 20.734 77.5783 19.7063C77.1333 19.119 77.1333 18.3849 77.1333 17.6509H80.8417C80.8417 17.7977 80.6933 18.2381 81.1383 18.5318C81.2867 18.6786 81.7317 18.9722 82.325 18.9722C82.4733 18.9722 83.3633 18.9722 83.8083 18.5318C84.4017 18.0913 84.2533 17.3572 84.2533 17.2105V15.8891C84.105 16.1828 84.105 16.3296 83.9567 16.3296C83.3633 16.9168 82.4733 17.0637 81.7317 17.0637C80.545 17.0637 79.655 16.77 78.765 16.1828C78.0233 15.5955 77.1333 14.421 77.1333 12.072C77.1333 11.6316 77.1333 9.72297 78.32 8.40164C79.21 7.52075 80.6933 7.0803 81.88 7.0803C82.1767 7.0803 83.3633 7.0803 84.105 7.81438C84.4017 7.96119 84.4017 7.96119 84.6983 8.40164V7.37393H88.2583V16.9168C88.11 17.0637 88.11 17.3572 88.11 17.5041ZM83.3633 10.0166C83.215 10.0166 82.9183 9.86979 82.6217 9.86979C82.325 9.86979 82.1767 10.0166 81.88 10.0166C81.2867 10.3102 80.99 10.8975 80.99 12.2188C80.99 13.0997 81.1383 13.6869 81.435 13.8337L81.88 14.2742H82.4733C82.6217 14.2742 82.9183 14.2742 83.3633 14.1274C84.105 13.8337 84.2533 12.806 84.2533 12.072C84.2533 11.3379 84.105 10.457 83.3633 10.0166ZM20.7667 32.7727C18.5417 32.7727 17.8 32.0386 17.5033 31.0109C17.355 30.5705 17.355 30.2768 17.355 29.8364V24.9916H16.02V22.7893H17.5033V19.5595H21.5083V22.7893H23.2883V24.9916H21.5083L21.36 28.8087C21.36 29.2491 21.5083 29.8364 22.5467 29.8364H23.2883V32.6259C22.9917 32.6259 21.805 32.7727 20.7667 32.7727ZM39.605 28.3683C39.605 28.3683 39.605 28.8087 39.7533 29.1023C39.9017 29.5428 40.1983 30.2768 41.385 30.2768C41.9783 30.2768 42.275 29.9832 42.5717 29.8364C42.8683 29.5428 43.165 29.1023 43.165 28.9555L46.5767 30.2768C46.4283 30.4237 46.28 30.7173 45.9833 31.0109C45.39 31.745 44.5 32.1854 44.2033 32.4791C43.61 32.6259 42.5717 33.0663 41.0883 33.0663C40.3467 33.0663 39.4567 32.9195 38.715 32.6259C36.6383 31.745 35.4517 29.6896 35.4517 27.4874C35.4517 25.432 36.49 24.1107 37.0833 23.6702C38.5667 22.2021 40.495 22.0553 41.0883 22.0553C41.83 22.0553 43.9067 22.2021 45.39 23.817C45.835 24.2575 46.28 24.9916 46.4283 25.7256C46.725 26.6065 46.725 27.3406 46.725 28.3683H39.605ZM42.5717 25.5788C42.275 24.8447 41.5333 24.6979 41.2367 24.6979C40.94 24.6979 40.6433 24.8447 40.495 24.8447C39.7533 25.1384 39.7533 26.0193 39.605 26.1661H42.5717V25.5788ZM54.1417 25.7256C53.6967 25.7256 52.065 25.5788 51.4717 26.9002V32.6259H47.3183V22.4958H51.3233V23.3766L51.7683 22.9362C52.8067 22.3489 53.5483 22.3489 54.735 22.3489V25.7256H54.1417ZM61.7067 32.6259V31.8918C61.5583 32.0386 61.41 32.1854 60.965 32.3323C60.52 32.6259 59.63 32.9195 58.295 32.9195C58.1467 32.9195 57.405 32.9195 56.6633 32.6259C55.3283 32.1854 54.735 31.0109 54.735 29.6896C54.735 29.1023 54.735 27.9279 56.07 27.047C56.96 26.4597 57.9983 26.3129 59.0367 26.1661C59.63 26.1661 60.2233 26.0193 60.8167 25.8725C60.965 25.8725 61.2617 25.7256 61.5583 25.7256C61.5583 25.7256 61.5583 25.432 61.41 25.2852C61.41 24.8448 61.1133 24.5511 60.2233 24.5511H59.63C58.8883 24.6979 58.8883 25.2852 58.8883 25.432L55.0317 25.5788C55.0317 25.432 55.18 25.1384 55.18 24.9916C55.18 24.5511 55.4767 23.9639 56.2183 23.2298C57.1083 22.6426 58.295 22.2021 60.52 22.2021C62.1517 22.2021 64.2283 22.4958 65.1183 24.1107C65.2667 24.5511 65.415 24.9916 65.415 25.8725V31.4514C65.415 32.1854 65.415 32.3323 65.7117 32.6259H61.7067ZM59.9267 28.3683C59.4817 28.5151 58.8883 28.6619 58.5917 29.1023C58.5917 29.1023 58.4433 29.2491 58.4433 29.5428C58.4433 29.8364 58.74 30.2768 59.4817 30.2768C59.7783 30.2768 60.075 30.13 60.3717 29.9832C61.5583 29.396 61.5583 28.3683 61.5583 27.9279C60.965 28.0747 60.52 28.2214 59.9267 28.3683ZM73.1283 32.9195C72.8317 32.9195 71.7933 32.9195 70.9033 32.3323C70.755 32.1854 70.755 32.1854 70.4583 32.0386V36.2962H66.6017V22.4958H70.4583V23.3766L70.9033 22.9362C71.3483 22.6426 72.09 22.3489 73.2767 22.3489C76.3917 22.3489 77.7267 24.8447 77.7267 27.6342C77.7267 30.4237 76.3917 32.9195 73.1283 32.9195ZM73.2767 25.7256C72.8317 25.2852 72.3867 25.1384 72.09 25.1384C71.9417 25.1384 71.645 25.2852 71.3483 25.432C70.4583 25.8725 70.4583 26.9002 70.4583 27.6342C70.4583 28.5151 70.6067 29.5428 71.3483 29.8364C71.645 30.13 71.9417 30.13 72.09 30.13C72.2383 30.13 72.535 30.13 72.8317 29.8364C73.5733 29.396 73.7217 28.5151 73.7217 27.6342C73.7217 27.047 73.5733 26.3129 73.2767 25.7256ZM85.2917 33.2131C84.995 34.094 84.55 35.1217 83.8083 35.7089C83.0667 36.2962 82.1767 36.2962 81.2867 36.2962H80.2483L79.0617 36.1494V33.36H80.2483C80.8417 33.36 81.1383 33.2131 81.1383 32.9195C81.1383 32.7727 80.99 32.3323 80.8417 31.8918L77.5783 22.4958H81.7317L83.215 29.1023C83.215 29.1023 84.6983 22.6426 84.8467 22.4958H89L85.2917 33.2131ZM34.71 24.6979C34.5617 23.9639 34.1167 23.3766 33.82 23.083C33.0783 22.3489 32.04 22.0553 31.0017 22.0553C29.5183 22.0553 28.6283 22.6426 28.1833 23.083L27.7383 23.5234V18.8254H23.7333V32.6259H27.7383V25.432H31.2983V32.6259H34.8583V26.0193C34.8583 25.5788 34.71 25.2852 34.71 24.6979Z" fill="#FFF5D5"/>
</svg>
