<svg width="40" height="40" viewBox="0 0 40 40" fill="none" xmlns="http://www.w3.org/2000/svg">
<g clip-path="url(#clip0_6514_26713)">
<mask id="mask0_6514_26713" style="mask-type:luminance" maskUnits="userSpaceOnUse" x="0" y="0" width="40" height="40">
<path d="M40 0.24707H0V39.7532H40V0.24707Z" fill="white"/>
</mask>
<g mask="url(#mask0_6514_26713)">
<path fill-rule="evenodd" clip-rule="evenodd" d="M18.6489 0.24707H35.4073C36.7861 0.24707 37.9529 1.39538 37.9529 2.75248V28.9548C37.9529 30.312 36.7861 31.4603 35.4073 31.4603H18.6489V0.24707ZM18.6489 26.7626V23.7353H20.3459C23.9522 23.7353 27.2402 22.7957 29.5737 21.2298L24.9067 21.543C24.4825 21.543 24.0582 21.4386 23.74 21.1254C23.4219 20.8123 23.3158 20.3947 23.3158 19.9771V19.8727C23.4219 19.142 24.0582 18.5157 24.8007 18.5157H35.7255C36.3618 18.5157 36.7862 18.8288 37.1044 19.2464C37.4226 19.664 37.5286 20.1859 37.4226 20.7079L35.6194 27.0758C35.4073 28.0153 34.3467 28.6417 33.3921 28.4329L32.8617 28.3285C32.2253 28.2241 31.801 27.9109 31.4828 27.3889C31.1646 26.867 31.1646 26.345 31.3768 25.8231L32.0132 23.8396C29.0433 25.7187 24.9067 26.867 20.452 26.867C19.8156 26.867 19.1792 26.867 18.6489 26.7626ZM18.6489 7.45013V5.25789H20.452C24.4825 5.25789 28.0887 6.093 31.0586 7.65887C31.3768 7.86766 31.5889 8.18085 31.695 8.59843C31.695 9.01601 31.5889 9.32914 31.2707 9.64233L31.1646 9.85112C30.6343 10.2687 29.9979 10.2687 29.5737 9.95551C27.2402 8.38964 23.9522 7.34574 20.3459 7.34574C19.7095 7.34574 19.1792 7.45013 18.6489 7.45013ZM18.6489 5.25789V7.45013C12.391 7.97206 7.61805 11.417 7.61805 15.5927C7.61805 19.7684 12.391 23.1089 18.6489 23.7353V26.7626C10.2697 26.2407 3.69362 21.6474 3.69362 16.0102C3.69362 10.4775 10.2697 5.88426 18.6489 5.25789ZM7.61805 36.8887H4.22395V37.6194H6.76955C6.66345 38.0369 6.2392 38.4545 6.02705 38.6633C5.6028 38.8721 5.17855 38.9765 4.64821 38.9765C2.63296 38.7677 2.2087 36.0535 3.90575 35.114C4.54214 34.8008 5.2846 34.8008 5.921 35.114C6.66345 35.6359 5.70885 35.5315 7.29985 35.5315C7.1938 35.0096 6.5574 34.4876 6.02705 34.2788C5.2846 33.9656 4.43608 33.9656 3.79968 34.2788C2.63296 34.6964 1.67837 36.0535 2.10263 37.6194C2.42083 38.8721 3.69362 39.916 5.2846 39.7072C6.34525 39.6028 7.0877 38.8721 7.4059 38.0369C7.512 37.7238 7.7241 37.2018 7.61805 36.8887ZM31.695 36.6799V35.4271C32.2253 35.3227 32.9677 35.4271 32.8617 36.0535C32.8617 36.6799 32.2253 36.6799 31.695 36.6799ZM30.3162 39.6028H31.695V37.9326C31.695 37.9326 32.5435 39.394 32.7556 39.6028H34.3466C34.3466 39.4984 33.1799 38.0369 33.0738 37.8282C33.1799 37.7238 33.3921 37.7238 33.7103 37.4106C33.9223 37.2018 34.0285 36.993 34.1345 36.6799C34.5588 35.6359 34.1345 34.2788 32.5435 34.1744H30.3162V39.6028ZM24.9067 37.6194C22.9976 37.6194 23.634 37.515 23.2097 37.9326C22.8915 38.3501 22.3612 38.5589 21.8309 38.3501C20.346 37.9326 20.346 35.8447 21.8309 35.5315C22.4673 35.3227 22.8915 35.5315 23.2097 35.8447C23.74 36.3667 22.9976 36.2623 25.0128 36.2623C24.9067 35.9491 24.6947 35.5315 24.5886 35.3227C24.0583 34.4876 22.9976 33.9656 21.8309 34.07C20.452 34.1744 19.2853 35.4271 19.2853 36.8887C19.3913 38.3501 20.346 39.4984 21.7248 39.7072C22.8915 39.916 23.9522 39.394 24.5886 38.5589C24.6947 38.3501 24.9067 37.9326 24.9067 37.6194ZM13.0274 39.6028H13.7698V35.0096C13.8759 35.114 14.9366 37.9326 15.1487 38.4545C15.1487 38.6633 15.4669 39.4984 15.573 39.6028H16.1033C16.3154 39.0808 16.7397 37.9326 17.0579 37.3062C17.1639 36.8887 17.3761 36.4711 17.4821 36.1579L17.9065 35.0096V39.6028H18.6489V34.1744H17.4821C17.27 34.6964 16.5276 36.6799 16.3155 37.3062C16.2094 37.4106 15.8912 38.2457 15.7851 38.3501L14.1941 34.1744H13.0274V39.6028ZM27.3463 36.0535C27.4524 36.1579 27.8766 37.6194 27.8766 37.7238H26.816L27.3463 36.0535ZM24.6947 39.6028H26.1796L26.4977 38.8721H28.3009L28.513 39.6028H30.104C29.9979 39.4984 29.0434 37.0974 29.0434 36.8887C28.8312 36.4711 28.6191 35.9491 28.513 35.5315C28.4069 35.3227 27.9827 34.2788 27.8766 34.1744H26.816L25.7553 36.8887C25.6493 37.2018 24.6947 39.4984 24.6947 39.6028ZM37.9529 36.2623H36.2558V35.4271H37.9529V34.1744H34.983V39.6028H37.9529V38.4545H36.2558V37.515H37.9529V36.2623ZM10.0576 35.2183C10.1637 35.4271 10.8 37.2018 10.8 37.3062H9.3151C9.20905 37.2018 9.9515 35.3227 10.0576 35.2183ZM7.512 39.6028H8.3605L8.9969 38.0369H11.1182C11.2243 38.3501 11.3304 38.5589 11.4364 38.8721C11.4364 39.0808 11.6486 39.4984 11.7546 39.6028H12.6032C12.6032 39.4984 11.6485 37.2018 11.5425 36.8887C11.4364 36.5755 10.4818 34.2788 10.3757 34.1744H9.6333L7.512 39.6028Z" fill="#FFF5D5"/>
<path fill-rule="evenodd" clip-rule="evenodd" d="M37.9529 36.2622V37.5149H36.2558V38.4544H37.9529V39.6027H34.983V34.1743C34.877 34.2787 34.877 39.4983 34.877 39.7071H37.9529V38.4544H36.3619V37.5149H37.9529V36.8885C37.9529 36.7841 38.059 36.3666 37.9529 36.2622Z" fill="#FFF5D5"/>
</g>
</g>
<defs>
<clipPath id="clip0_6514_26713">
<rect width="40" height="40" fill="white"/>
</clipPath>
</defs>
</svg>
