<svg width="25" height="25" viewBox="0 0 25 25" fill="none" xmlns="http://www.w3.org/2000/svg">
<g clip-path="url(#clip0_49_5215)">
<mask id="mask0_49_5215" style="mask-type:luminance" maskUnits="userSpaceOnUse" x="0" y="0" width="26" height="25">
<path d="M25.0001 0.154297H0.00012207V24.8457H25.0001V0.154297Z" fill="white"/>
</mask>
<g mask="url(#mask0_49_5215)">
<path fill-rule="evenodd" clip-rule="evenodd" d="M11.6754 0.154297H22.1666C23.0244 0.154297 23.6842 0.87234 23.6842 1.72094V18.1054C23.6842 18.954 23.0244 19.6068 22.1666 19.6068H11.6754V0.154297Z" fill="black"/>
<path fill-rule="evenodd" clip-rule="evenodd" d="M11.6752 16.7346V14.7763C12.0711 14.8415 12.401 14.8415 12.7969 14.8415C15.0403 14.8415 17.0197 14.2541 18.4713 13.2749L15.6341 13.4055C15.3042 13.4707 15.1062 13.3402 14.9083 13.1444C14.7104 12.9485 14.5784 12.7527 14.6444 12.4263C14.6444 11.9041 15.0403 11.5777 15.5681 11.5777H22.3643C22.6942 11.5777 22.9581 11.7083 23.2221 12.0347C23.42 12.2958 23.486 12.6221 23.354 12.9485L22.2983 16.8651C22.1004 17.4526 21.5065 17.8443 20.8467 17.7137L20.5168 17.6485C20.1869 17.5832 19.9229 17.3874 19.725 17.061C19.5271 16.7999 19.4611 16.4082 19.593 16.0818L20.0549 14.9068C18.2074 16.0165 15.6341 16.7346 12.8629 16.7346H11.6752ZM11.6752 4.6584V3.28757H12.8629C15.3042 3.28757 17.6136 3.80979 19.3951 4.78896C19.659 4.91948 19.791 5.11532 19.791 5.37643C19.857 5.63754 19.791 5.83337 19.593 6.0292L19.4611 6.09448C19.1972 6.35559 18.8013 6.42087 18.4713 6.22504C17.0197 5.24587 15.0403 4.59312 12.7969 4.59312C12.401 4.59312 12.0711 4.6584 11.6752 4.6584ZM2.83357 0.154297H11.6752V19.6068H2.83357C1.9758 19.6068 1.25 18.954 1.25 18.1054V1.72094C1.25 0.87234 1.9758 0.154297 2.83357 0.154297Z" fill="#4C5061"/>
<path fill-rule="evenodd" clip-rule="evenodd" d="M11.6751 3.2876V4.6584C7.84809 4.98479 4.87888 7.13892 4.87888 9.74997C4.87888 12.2958 7.84809 14.4499 11.6751 14.7763V16.7346C6.46247 16.3429 2.43755 13.4707 2.43755 10.0111C2.43755 6.55142 6.46247 3.67923 11.6751 3.2876ZM4.87888 23.0012H2.76746V23.5234H4.28506C4.21906 23.7192 4.02113 23.9803 3.82319 24.1108C3.62522 24.2414 3.36131 24.372 3.03139 24.3067C1.77773 24.1761 1.5138 22.4789 2.56951 21.8915C2.89942 21.6956 3.42728 21.6956 3.82319 21.9567C4.28506 22.2178 3.69122 22.2178 4.68094 22.2178C4.61497 21.8915 4.21906 21.4998 3.88916 21.3692C3.42728 21.2387 2.89943 21.2387 2.43755 21.3692C1.77773 21.6956 1.18389 22.4789 1.44782 23.5234C1.64576 24.3067 2.43755 24.9595 3.42728 24.8289C4.08709 24.6983 4.54897 24.2414 4.74694 23.7192C4.81291 23.5886 4.94488 23.197 4.87888 23.0012ZM19.7908 22.9359V22.0873C20.1868 22.0873 20.5826 22.0873 20.5826 22.4789C20.5826 22.9359 20.1868 22.9359 19.7908 22.9359ZM18.9331 24.7636H19.7908V23.6539C19.8568 23.7192 20.3847 24.6331 20.4507 24.7636H21.5064C21.4404 24.6983 20.7806 23.7845 20.6486 23.5886C20.7806 23.5234 20.9126 23.5234 21.1105 23.3275C21.1765 23.2623 21.3084 23.1317 21.3744 22.9359C21.5724 22.2831 21.3084 21.3692 20.3187 21.3692C19.9228 21.304 19.395 21.304 18.9331 21.304V24.7636ZM15.634 23.4581C14.4463 23.4581 14.8422 23.3928 14.5782 23.7192C14.3143 23.915 14.0504 24.0456 13.6545 23.915C12.7968 23.6539 12.7968 22.3484 13.7205 22.1526C14.0504 22.0873 14.3143 22.1526 14.5782 22.4136C14.8422 22.6748 14.4463 22.6095 15.634 22.6095C15.634 22.4136 15.502 22.1526 15.3701 22.022C15.0401 21.4998 14.4463 21.2387 13.7205 21.304C12.8627 21.3692 12.1369 22.0873 12.1369 23.0012C12.1369 23.9803 12.7968 24.6983 13.6545 24.8289C14.3803 24.8942 14.9742 24.6331 15.3701 24.0456C15.436 23.915 15.634 23.6539 15.634 23.4581ZM8.24397 24.7636H8.70584V21.8262C8.77184 21.8915 9.43166 23.7192 9.49763 24.0456C9.56363 24.1761 9.76156 24.6983 9.82756 24.7636H10.1575C10.2894 24.4372 10.5533 23.6539 10.6853 23.2623C10.8173 23.0664 10.8833 22.8053 11.0152 22.5442L11.2792 21.8262L11.2132 24.7636H11.741V21.304H10.9493C10.8833 21.6303 10.3554 22.9359 10.2234 23.3275C10.2234 23.3928 10.0255 23.915 9.9595 23.9803L8.96978 21.3692L8.24397 21.304V24.7636ZM17.1516 22.4789C17.1516 22.5442 17.4815 23.5234 17.4815 23.5234H16.8217L17.1516 22.4789ZM15.502 24.7636H16.3598L16.5577 24.2414H17.6794L17.8774 24.7636H18.8011C18.8011 24.6983 18.2073 23.197 18.1413 23.0664C18.0093 22.74 17.9433 22.4789 17.8114 22.2178C17.7454 22.022 17.5475 21.4345 17.4815 21.304H16.8217L16.1618 23.0664C16.0299 23.2623 15.502 24.6331 15.502 24.7636ZM23.6838 22.6095L22.6941 22.6748V22.0873H23.6838V21.3692H21.8363V24.7636H23.6838V23.9803H22.6941V23.3928H23.6838V22.6095ZM6.39647 22.022C6.39647 22.0873 6.85834 23.197 6.85834 23.2623H5.86863C5.86863 23.197 6.3305 22.0873 6.39647 22.022ZM4.74694 24.7636H5.27478L5.67069 23.7845H7.05631C7.12228 23.915 7.18825 24.1108 7.25425 24.2414C7.25425 24.372 7.38622 24.6983 7.45219 24.7636H7.98006C7.98006 24.6331 7.38622 23.2623 7.32022 23.0664C7.18825 22.8706 6.66041 21.4345 6.59444 21.304H6.13256L4.74694 24.7636Z" fill="black"/>
<path fill-rule="evenodd" clip-rule="evenodd" d="M23.6841 22.6097V23.3931H22.6944V23.9806H23.6841V24.7639H21.8366V21.3695H23.6841V22.0875C23.7501 22.0875 23.7501 22.0875 23.7501 21.8917C23.7501 21.7611 23.7501 21.4348 23.6841 21.3042H21.8366C21.8366 21.3695 21.7706 24.6333 21.8366 24.7639H23.6841L23.7501 23.9806H22.6944V23.3931H23.6841C23.7501 23.3278 23.7501 23.1319 23.7501 23.0014C23.7501 22.9361 23.7501 22.675 23.6841 22.6097Z" fill="black"/>
</g>
</g>
<defs>
<clipPath id="clip0_49_5215">
<rect width="25" height="25" fill="white"/>
</clipPath>
</defs>
</svg>
