<svg width="96" height="30" viewBox="0 0 96 30" fill="none" xmlns="http://www.w3.org/2000/svg">
<g clip-path="url(#clip0_49_5196)">
<path d="M30.5688 0.521876V29.2175C30.5688 29.4349 30.4381 29.5654 30.2202 29.5654H15.9266C15.8419 29.5547 15.764 29.5134 15.7078 29.4493C15.6516 29.3852 15.6209 29.3027 15.6216 29.2175V17.1741C15.6216 16.3045 14.4885 15.8697 13.8784 16.4784L1.24083 29.0871C1.19472 29.1394 1.13396 29.1766 1.0664 29.194C0.998844 29.2115 0.927599 29.2083 0.861884 29.1848C0.796169 29.1614 0.739009 29.1189 0.6978 29.0627C0.656591 29.0065 0.633229 28.9393 0.630737 28.8697V0.608833C0.630737 0.304485 0.979361 0.17405 1.19725 0.391441L14.7064 13.8262C15.1858 14.261 16.0138 14.261 16.4495 13.8262L30.0459 0.261007C30.0935 0.221845 30.1507 0.196008 30.2117 0.186137C30.2726 0.176266 30.3351 0.182715 30.3927 0.204825C30.4503 0.226935 30.501 0.263913 30.5396 0.311978C30.5782 0.360044 30.6033 0.417474 30.6124 0.478398L30.5688 0.521876Z" fill="#8350F6"/>
<path d="M40.5479 23.3041V6.43457H45.2979L49.9607 18.8259L54.5364 6.43457H59.1992V23.3041H55.713V11.9998L51.3552 23.3041H48.3919L44.0341 11.9998V23.3041H40.5479Z" fill="#4C5061"/>
<path d="M63.6009 21.0868C62.0698 19.3863 61.2714 17.1528 61.3784 14.8694C61.3255 13.7285 61.4984 12.5883 61.8872 11.5141C62.276 10.4398 62.8732 9.45252 63.6445 8.60855C65.1261 7.08681 67.1307 6.3042 69.7454 6.3042C71.75 6.3042 73.4495 6.86942 74.7569 7.99985C76.1078 9.13029 76.9358 10.6085 77.1101 12.4346H73.4931C73.0573 10.5216 71.6628 9.39116 69.6582 9.39116C69.0218 9.35696 68.3863 9.473 67.8033 9.72986C67.2202 9.98671 66.7061 10.3771 66.3027 10.8694C65.4354 12.0172 65.0031 13.4342 65.0826 14.8694C65.0826 16.5216 65.5183 17.8259 66.3027 18.8694C66.7017 19.3696 67.2138 19.7684 67.7971 20.0329C68.3804 20.2974 69.0182 20.4202 69.6582 20.3912C71.5757 20.3912 73.5367 19.3477 73.8417 16.9999V16.7825H69.6582V13.9129H77.1972V23.3042H74.6697L74.3211 21.2607C73.3188 22.5651 71.6628 23.4346 69.3968 23.4346C67 23.4346 65.039 22.652 63.5573 21.0868H63.6009Z" fill="#4C5061"/>
<path d="M82.5133 23.3041H78.7656L84.9101 6.43457H89.2679L95.3688 23.3041H91.5775L90.2702 19.6085H83.7335L82.4262 23.3041H82.5133ZM87.0019 10.2607L84.7358 16.6954H89.2243L86.9583 10.3041L87.0019 10.2607Z" fill="#4C5061"/>
</g>
<defs>
<clipPath id="clip0_49_5196">
<rect width="95" height="30" fill="white" transform="translate(0.5)"/>
</clipPath>
</defs>
</svg>
