<svg width="30" height="30" viewBox="0 0 30 30" fill="none" xmlns="http://www.w3.org/2000/svg">
<circle cx="15" cy="15" r="14" fill="#705D93" stroke="white" stroke-width="2"/>
<path d="M14.7349 10.2694C14.7923 10.1861 14.869 10.118 14.9585 10.071C15.048 10.0239 15.1476 9.99936 15.2487 9.99936C15.3498 9.99936 15.4494 10.0239 15.5389 10.071C15.6284 10.118 15.7051 10.1861 15.7624 10.2694L21.3874 18.3944C21.4525 18.4881 21.4907 18.5979 21.4978 18.7117C21.5049 18.8256 21.4807 18.9393 21.4277 19.0404C21.3748 19.1415 21.2951 19.2261 21.1974 19.2851C21.0998 19.3441 20.9878 19.3752 20.8737 19.375H9.62366C9.50982 19.3745 9.39825 19.343 9.30096 19.2839C9.20368 19.2248 9.12435 19.1402 9.07152 19.0394C9.01869 18.9385 8.99434 18.8252 9.00111 18.7115C9.00787 18.5979 9.04549 18.4882 9.10991 18.3944L14.7349 10.2694Z" fill="white"/>
</svg>
